<svg width="20" height="20" viewBox="0 0 20 20" fill="none" xmlns="http://www.w3.org/2000/svg">
<g clip-path="url(#clip0_16185_1151)">
<path d="M20 12.1604V19.5557H15.7124V12.656C15.7124 10.9236 15.0934 9.74051 13.541 9.74051C12.3563 9.74051 11.6525 10.537 11.3417 11.3083C11.2288 11.5839 11.1997 11.9666 11.1997 12.3532V19.5554H6.91181C6.91181 19.5554 6.96937 7.86963 6.91181 6.66H11.2V8.48739C11.1914 8.50178 11.1793 8.51585 11.1716 8.5296H11.2V8.48739C11.7698 7.61063 12.786 6.35719 15.0643 6.35719C17.8851 6.35719 20 8.20025 20 12.1604ZM2.4263 0.44397C0.959582 0.44397 0 1.40675 0 2.6717C0 3.90979 0.931764 4.90039 2.37002 4.90039H2.39784C3.89333 4.90039 4.82317 3.90979 4.82317 2.6717C4.79472 1.40675 3.89333 0.44397 2.4263 0.44397ZM0.254844 19.5557H4.54115V6.66H0.254844V19.5557Z" fill="#018294"/>
</g>
<defs>
<clipPath id="clip0_16185_1151">
<rect width="20" height="20" fill="white"/>
</clipPath>
</defs>
</svg>
