<svg width="49" height="46" viewBox="0 0 49 46" fill="none" xmlns="http://www.w3.org/2000/svg">
<path fill-rule="evenodd" clip-rule="evenodd" d="M0.99884 5.17121C0.99884 2.52018 3.14793 0.371094 5.79896 0.371094H44.1999C46.8509 0.371094 49 2.52018 49 5.17121V38.0863C49 40.7373 46.8509 42.8864 44.1999 42.8864H42.1427C41.764 42.8864 41.457 42.5794 41.457 42.2007C41.457 41.822 41.764 41.515 42.1427 41.515H44.1999C46.0935 41.515 47.6286 39.9799 47.6286 38.0863V5.17121C47.6286 3.27762 46.0935 1.74256 44.1999 1.74256H5.79896C3.90536 1.74256 2.3703 3.27762 2.3703 5.17121V38.0863C2.3703 39.9799 3.90536 41.515 5.79896 41.515H31.8567C32.2355 41.515 32.5425 41.822 32.5425 42.2007C32.5425 42.5794 32.2355 42.8864 31.8567 42.8864H5.79896C3.14793 42.8864 0.99884 40.7373 0.99884 38.0863V5.17121Z" fill="white"/>
<path fill-rule="evenodd" clip-rule="evenodd" d="M20.7313 21.1967C20.9701 21.4906 20.9255 21.9225 20.6315 22.1613L15.8007 26.0864L20.6315 30.0114C20.9255 30.2502 20.9701 30.6821 20.7313 30.976C20.4925 31.27 20.0606 31.3146 19.7667 31.0758L14.2808 26.6186C14.1206 26.4884 14.0275 26.2929 14.0275 26.0864C14.0275 25.8799 14.1206 25.6844 14.2808 25.5542L19.7667 21.0969C20.0606 20.8581 20.4925 20.9028 20.7313 21.1967Z" fill="white"/>
<path fill-rule="evenodd" clip-rule="evenodd" d="M26.5041 17.8704C26.8755 17.9447 27.1163 18.3059 27.042 18.6773L23.9562 34.1062C23.882 34.4776 23.5207 34.7184 23.1493 34.6442C22.778 34.5699 22.5371 34.2086 22.6114 33.8373L25.6972 18.4083C25.7715 18.0369 26.1327 17.7961 26.5041 17.8704Z" fill="white"/>
<path fill-rule="evenodd" clip-rule="evenodd" d="M28.9248 21.1967C28.6859 21.4906 28.7306 21.9225 29.0245 22.1613L33.8554 26.0864L29.0245 30.0114C28.7306 30.2502 28.6859 30.6821 28.9248 30.976C29.1636 31.27 29.5954 31.3146 29.8894 31.0758L35.3752 26.6186C35.5355 26.4884 35.6285 26.2929 35.6285 26.0864C35.6285 25.8799 35.5355 25.6844 35.3752 25.5542L29.8894 21.0969C29.5954 20.8581 29.1636 20.9028 28.9248 21.1967Z" fill="white"/>
<path fill-rule="evenodd" clip-rule="evenodd" d="M40.0762 38.2678C40.3544 38.5247 40.3718 38.9585 40.1149 39.2368L34.4181 45.4084C34.1612 45.6867 33.7274 45.704 33.4491 45.4471C33.1708 45.1903 33.1534 44.7564 33.4103 44.4781L39.1072 38.3066C39.364 38.0283 39.7979 38.0109 40.0762 38.2678Z" fill="white"/>
<path fill-rule="evenodd" clip-rule="evenodd" d="M33.4503 38.2678C33.1721 38.5247 33.1547 38.9585 33.4116 39.2368L39.1084 45.4084C39.3653 45.6867 39.7991 45.704 40.0774 45.4471C40.3557 45.1903 40.3731 44.7564 40.1162 44.4781L34.4193 38.3066C34.1625 38.0283 33.7286 38.0109 33.4503 38.2678Z" fill="white"/>
<path fill-rule="evenodd" clip-rule="evenodd" d="M1.68292 12.0288H48.3126V13.4003H1.68292V12.0288Z" fill="white"/>
<path fill-rule="evenodd" clip-rule="evenodd" d="M6.82706 5.8573C6.25898 5.8573 5.79846 6.31782 5.79846 6.8859C5.79846 7.45398 6.25898 7.9145 6.82706 7.9145C7.39514 7.9145 7.85566 7.45398 7.85566 6.8859C7.85566 6.31782 7.39514 5.8573 6.82706 5.8573ZM4.427 6.8859C4.427 5.56038 5.50155 4.48584 6.82706 4.48584C8.15258 4.48584 9.22712 5.56038 9.22712 6.8859C9.22712 8.21142 8.15258 9.28596 6.82706 9.28596C5.50155 9.28596 4.427 8.21142 4.427 6.8859Z" fill="white"/>
<path fill-rule="evenodd" clip-rule="evenodd" d="M14.3714 5.8573C13.8034 5.8573 13.3428 6.31782 13.3428 6.8859C13.3428 7.45398 13.8034 7.9145 14.3714 7.9145C14.9395 7.9145 15.4 7.45398 15.4 6.8859C15.4 6.31782 14.9395 5.8573 14.3714 5.8573ZM11.9714 6.8859C11.9714 5.56038 13.0459 4.48584 14.3714 4.48584C15.697 4.48584 16.7715 5.56038 16.7715 6.8859C16.7715 8.21142 15.697 9.28596 14.3714 9.28596C13.0459 9.28596 11.9714 8.21142 11.9714 6.8859Z" fill="white"/>
<path fill-rule="evenodd" clip-rule="evenodd" d="M21.9138 5.8573C21.3457 5.8573 20.8852 6.31782 20.8852 6.8859C20.8852 7.45398 21.3457 7.9145 21.9138 7.9145C22.4819 7.9145 22.9424 7.45398 22.9424 6.8859C22.9424 6.31782 22.4819 5.8573 21.9138 5.8573ZM19.5137 6.8859C19.5137 5.56038 20.5883 4.48584 21.9138 4.48584C23.2393 4.48584 24.3139 5.56038 24.3139 6.8859C24.3139 8.21142 23.2393 9.28596 21.9138 9.28596C20.5883 9.28596 19.5137 8.21142 19.5137 6.8859Z" fill="white"/>
</svg>
