<svg width="174" height="39" viewBox="0 0 174 39" fill="none" xmlns="http://www.w3.org/2000/svg">
<g clip-path="url(#clip0_57_241)">
<path d="M47.6197 18.8837C50.2514 18.8837 52.0178 20.0733 53.0994 21.5514V0.49775C53.0994 0.101192 52.6307 -0.151163 52.3063 0.101192L26.3136 19.1H26.9986C29.7024 19.1 31.0723 20.8304 31.0723 22.705C31.0723 24.1831 30.3153 25.2646 29.2698 25.7333C29.0895 25.8054 29.0895 26.0578 29.2698 26.1299C30.4595 26.6346 31.3247 27.8964 31.3247 29.4105C31.3247 31.5735 29.9187 33.2679 27.2149 33.2679H19.8245C19.6803 33.2679 19.5361 33.1598 19.5361 32.9795V24.0389L0.176809 38.2069C-0.147648 38.4953 -0.00344533 39 0.429164 39H52.6307C52.8831 39 53.0633 38.8197 53.0633 38.5674V31.3933C51.6573 32.6911 49.8187 33.5203 47.5836 33.5203C43.4017 33.5203 40.0129 30.6362 40.0129 26.202C40.049 21.7317 43.4738 18.8837 47.6197 18.8837ZM37.2731 33.0156C37.2731 33.1598 37.1649 33.2679 37.0207 33.2679H34.5332C34.389 33.2679 34.2809 33.1598 34.2809 33.0156V19.3523C34.2809 19.2081 34.389 19.1 34.5332 19.1H37.0207C37.1649 19.1 37.2731 19.2081 37.2731 19.3523V33.0156Z" fill="#2D2D2D"/>
<path d="M22.8529 24.7239H26.3498C27.3592 24.7239 28.0081 24.147 28.0081 23.2458C28.0081 22.3806 27.3592 21.7677 26.3498 21.7677H22.7087C22.6366 21.7677 22.5645 21.8398 22.5645 21.9119V24.4715C22.5645 24.6157 22.7087 24.7239 22.8529 24.7239ZM22.8529 30.6362H26.494C27.6116 30.6362 28.2965 30.0233 28.2965 29.0139C28.2965 28.1126 27.6476 27.3916 26.494 27.3916H22.8529C22.7087 27.3916 22.5645 27.4998 22.5645 27.68V30.3478C22.5645 30.492 22.7087 30.6362 22.8529 30.6362ZM50.8283 23.1737C50.1433 22.2724 48.9897 21.5514 47.6198 21.5514C45.0241 21.5514 43.1495 23.5342 43.1495 26.2019C43.1495 28.8697 45.0241 30.8525 47.6198 30.8525C48.8094 30.8525 49.927 30.3478 50.5399 29.8431C50.5759 29.807 50.612 29.7349 50.612 29.6628V28.2929C50.612 28.1847 50.5038 28.0766 50.3957 28.0766H47.1871C47.0069 28.0766 46.8987 27.9324 46.8987 27.7882V25.7693C46.8987 25.5891 47.0429 25.4809 47.1871 25.4809H53.1355V22.2724L51.2248 23.3179C51.0806 23.3539 50.9004 23.2818 50.8283 23.1737ZM55.3346 26.2019C55.3346 21.8398 58.471 18.8836 62.5087 18.8836C65.1404 18.8836 66.8348 20.2175 67.8443 21.8398C67.9164 21.9479 67.8803 22.1282 67.7361 22.1642L66.1138 23.0295C66.0057 23.1016 65.8615 23.0655 65.8254 22.9574C65.1404 21.8758 63.8787 21.0827 62.5087 21.0827C59.8049 21.0827 57.7861 23.2097 57.7861 26.2019C57.7861 29.1581 59.8049 31.3211 62.5087 31.3211C63.8787 31.3211 65.1404 30.528 65.8254 29.4465C65.8975 29.3384 66.0057 29.3023 66.1138 29.3744L67.7361 30.2036C67.8803 30.2757 67.9164 30.4199 67.8443 30.5641C66.7988 32.1864 65.1044 33.5563 62.5087 33.5563C58.471 33.5202 55.3346 30.528 55.3346 26.2019ZM69.2502 26.2019C69.2502 22.669 71.2691 19.9291 74.2973 19.136C79.4526 17.766 84.1753 22.5969 83.0577 27.9684C82.3727 31.2851 79.741 33.5563 76.2441 33.5563C72.1343 33.5202 69.2502 30.4199 69.2502 26.2019ZM80.7504 26.2019C80.7504 23.2818 78.9479 21.0827 76.208 21.0827C73.4321 21.0827 71.6656 23.2818 71.6656 26.2019C71.6656 29.1221 73.4321 31.3211 76.208 31.3211C78.9839 31.3211 80.7504 29.086 80.7504 26.2019ZM97.9106 33.0876V22.3084L93.6206 33.1597C93.6206 33.1958 93.5485 33.2318 93.5124 33.2318H92.6111C92.5751 33.2318 92.503 33.1958 92.503 33.1597L88.1769 22.3084V33.0876C88.1769 33.1958 88.1048 33.2679 87.9966 33.2679H85.8336C85.7254 33.2679 85.6533 33.1958 85.6533 33.0876V19.2441C85.6533 19.136 85.7254 19.0639 85.8336 19.0639H88.934C89.0782 19.0639 89.1863 19.136 89.2584 19.2802L93.0438 29.0139L96.793 19.2802C96.8291 19.136 96.9733 19.0639 97.1175 19.0639H100.218C100.326 19.0639 100.398 19.136 100.398 19.2441V33.0876C100.398 33.1958 100.326 33.2679 100.218 33.2679H98.0548C98.0188 33.2679 97.9106 33.1958 97.9106 33.0876ZM122.425 33.0155V19.3523C122.425 19.2081 122.533 19.0999 122.677 19.0999H131.87C132.015 19.0999 132.123 19.2081 132.123 19.3523V21.0106C132.123 21.1548 132.015 21.263 131.87 21.263H125.165C125.021 21.263 124.913 21.3711 124.913 21.5153V24.6518C124.913 24.796 125.021 24.9041 125.165 24.9041H131.726C131.87 24.9041 131.979 25.0123 131.979 25.1565V26.8148C131.979 26.959 131.87 27.0672 131.726 27.0672H125.165C125.021 27.0672 124.913 27.1753 124.913 27.3195V30.7443C124.913 30.8885 125.021 30.9967 125.165 30.9967H131.87C132.015 30.9967 132.123 31.1048 132.123 31.249V32.9074C132.123 33.0516 132.015 33.1597 131.87 33.1597H122.677C122.533 33.2679 122.425 33.1597 122.425 33.0155ZM143.659 33.1237L140.667 28.0766C140.631 28.0045 140.523 27.9684 140.451 27.9684H138.36C138.215 27.9684 138.107 28.0766 138.107 28.2208V33.0155C138.107 33.1597 137.999 33.2679 137.855 33.2679H135.908C135.764 33.2679 135.656 33.1597 135.656 33.0155V19.3523C135.656 19.2081 135.764 19.0999 135.908 19.0999H141.893C144.705 19.0999 146.543 20.9025 146.543 23.5342C146.543 25.8775 145.101 27.2114 143.515 27.6079C143.335 27.644 143.263 27.8242 143.335 28.0045C143.911 28.9418 145.714 31.8259 146.399 32.8713C146.507 33.0516 146.399 33.2679 146.183 33.2679H143.911C143.803 33.2679 143.731 33.2318 143.659 33.1237ZM143.984 23.4981C143.984 22.1282 142.974 21.263 141.568 21.263H138.396C138.251 21.263 138.143 21.3711 138.143 21.5153V25.517C138.143 25.6612 138.251 25.7693 138.396 25.7693H141.568C142.974 25.7693 143.984 24.9041 143.984 23.4981ZM163.343 33.0155V19.3523C163.343 19.2081 163.451 19.0999 163.595 19.0999H172.824C172.968 19.0999 173.077 19.2081 173.077 19.3523V21.0467C173.077 21.1909 172.968 21.299 172.824 21.299H166.083C165.938 21.299 165.83 21.4072 165.83 21.5514V24.7239C165.83 24.8681 165.938 24.9762 166.083 24.9762H172.644C172.788 24.9762 172.896 25.0844 172.896 25.2286V26.923C172.896 27.0672 172.788 27.1753 172.644 27.1753H166.083C165.938 27.1753 165.83 27.2835 165.83 27.4277V30.8885C165.83 31.0327 165.938 31.1409 166.083 31.1409H172.824C172.968 31.1409 173.077 31.249 173.077 31.3932V33.0876C173.077 33.2318 172.968 33.34 172.824 33.34H163.595C163.451 33.2679 163.343 33.1597 163.343 33.0155ZM148.346 26.1298C148.346 21.7677 151.482 18.8115 155.52 18.8115C158.151 18.8115 159.846 20.1454 160.855 21.7677C160.927 21.8758 160.891 22.0561 160.747 22.0921L159.125 22.9574C159.017 23.0295 158.872 22.9934 158.836 22.8853C158.151 21.8037 156.89 21.0106 155.52 21.0106C152.816 21.0106 150.797 23.1376 150.797 26.1298C150.797 29.086 152.816 31.249 155.52 31.249C156.89 31.249 158.151 30.4559 158.836 29.3744C158.909 29.2663 159.017 29.2302 159.125 29.3023L160.747 30.1315C160.891 30.2036 160.927 30.3478 160.855 30.492C159.81 32.1143 158.115 33.4842 155.52 33.4842C151.482 33.4481 148.346 30.492 148.346 26.1298ZM116.297 33.0876V22.3084L112.006 33.1597C112.006 33.1958 111.934 33.2318 111.898 33.2318H110.997C110.961 33.2318 110.889 33.1958 110.889 33.1597L106.563 22.3084V33.0876C106.563 33.1958 106.491 33.2679 106.383 33.2679H104.219C104.111 33.2679 104.039 33.1958 104.039 33.0876V19.2441C104.039 19.136 104.111 19.0639 104.219 19.0639H107.32C107.464 19.0639 107.572 19.136 107.644 19.2802L111.43 29.0139L115.179 19.2802C115.215 19.136 115.359 19.0639 115.503 19.0639H118.604C118.712 19.0639 118.784 19.136 118.784 19.2441V33.0876C118.784 33.1958 118.712 33.2679 118.604 33.2679H116.441C116.369 33.2679 116.297 33.1958 116.297 33.0876Z" fill="#2D2D2D"/>
</g>
<defs>
<clipPath id="clip0_57_241">
<rect width="174" height="39" fill="white"/>
</clipPath>
</defs>
</svg>
