<svg width="170" height="34" viewBox="0 0 170 34" fill="none" xmlns="http://www.w3.org/2000/svg">
<g clip-path="url(#clip0_57_244)">
<path d="M16.8509 17.2112C16.8509 19.7479 16.0959 21.8847 14.5805 23.6144C12.999 25.4268 10.9441 26.3366 8.42863 26.3366C5.90648 26.3366 3.85823 25.4268 2.27673 23.6144C0.760678 21.8847 0 19.7479 0 17.2112C0 14.6674 0.760678 12.5313 2.27673 10.8078C3.87578 9.01241 5.93077 8.11514 8.42863 8.11514C10.9441 8.11514 12.999 9.01241 14.5805 10.8078C16.0959 12.5313 16.8509 14.6674 16.8509 17.2112ZM11.8426 17.2112C11.8426 16.0621 11.5673 15.0923 11.0162 14.3082C10.3995 13.4169 9.53658 12.9741 8.42863 12.9741C7.32027 12.9741 6.45767 13.4169 5.84042 14.3082C5.28358 15.0923 5.00802 16.0621 5.00802 17.2112C5.00802 18.3538 5.28358 19.3353 5.84042 20.1429C6.45767 21.0342 7.32027 21.4777 8.42863 21.4777C9.53658 21.4777 10.3995 21.0342 11.0162 20.1429C11.5673 19.3353 11.8426 18.3538 11.8426 17.2112ZM34.9596 17.2112C34.9596 19.5807 34.2766 21.6511 32.9046 23.4224C31.437 25.3611 29.5441 26.3366 27.2438 26.3366C25.6202 26.3366 24.2429 25.8639 23.1167 24.9306C23.1167 25.1455 23.1406 25.6663 23.1887 26.4988C23.2365 27.3357 23.2601 28.018 23.2601 28.5566C23.2601 31.5316 22.3736 33.0152 20.6009 33.0152C19.8757 33.0152 19.2831 32.7578 18.8096 32.249C18.3424 31.7349 18.1086 31.1173 18.1086 30.3882V11.0414C18.1086 10.3352 18.3484 9.72452 18.8275 9.2104C19.3066 8.70158 19.9 8.44486 20.6068 8.44486C21.6727 8.44486 22.4516 8.97625 22.943 10.0363C23.9912 8.75569 25.423 8.11514 27.2379 8.11514C29.5441 8.11514 31.431 9.07209 32.9046 10.9936C34.2706 12.7711 34.9596 14.8415 34.9596 17.2112ZM29.9512 17.2112C29.9512 16.0621 29.6703 15.0923 29.1191 14.3082C28.5015 13.4169 27.6393 12.9741 26.5309 12.9741C25.423 12.9741 24.5604 13.4169 23.9431 14.3082C23.3919 15.0923 23.1167 16.0621 23.1167 17.2112C23.1167 18.3538 23.3919 19.3353 23.9431 20.1429C24.5604 21.0342 25.423 21.4777 26.5309 21.4777C27.6393 21.4777 28.5015 21.0342 29.1191 20.1429C29.6703 19.3353 29.9512 18.3538 29.9512 17.2112ZM53.1817 16.6731C53.1817 17.51 52.9839 18.0845 52.5884 18.4082C52.1933 18.725 51.5764 18.8865 50.7437 18.8865H41.7041C41.7041 19.8441 42.1537 20.5798 43.0521 21.0939C43.777 21.4956 44.6635 21.6996 45.7117 21.6996C46.5269 21.6996 47.5031 21.4293 48.6472 20.8975C49.7914 20.3585 50.5279 20.0948 50.846 20.0948C51.4267 20.0948 51.9177 20.3045 52.3251 20.7354C52.7262 21.1606 52.9304 21.675 52.9304 22.2677C52.9304 23.6373 51.9061 24.7037 49.8568 25.4692C48.2936 26.0434 46.7062 26.3366 45.0832 26.3366C42.4714 26.3366 40.3627 25.4692 38.7514 23.7402C37.1397 22.0103 36.3315 19.8381 36.3315 17.2112C36.3315 14.7092 37.1699 12.5731 38.847 10.7906C40.5181 9.00643 42.5973 8.11514 45.0769 8.11514C47.3832 8.11514 49.3119 8.95898 50.8579 10.6463C52.4028 12.3343 53.1817 14.3447 53.1817 16.6731ZM48.1741 15.4157C48.1498 14.6495 47.7966 13.9556 47.1136 13.3267C46.4306 12.6988 45.7061 12.388 44.9391 12.388C44.1485 12.388 43.4114 12.6988 42.7287 13.3267C42.0461 13.9556 41.7041 14.6495 41.7041 15.4157H48.1741ZM70.0082 23.3799C70.0082 24.1107 69.7749 24.7266 69.3081 25.2413C68.8346 25.7505 68.2413 26.0079 67.5166 26.0079C65.7674 26.0079 64.8925 24.6194 64.8925 21.8488C64.8925 21.3162 64.9287 20.4786 65.0004 19.3236C65.0785 18.1743 65.1147 17.3308 65.1147 16.7982C65.1147 13.8594 64.162 12.388 62.2631 12.388C60.364 12.388 59.4177 13.8594 59.4177 16.7982C59.4177 17.3308 59.4475 18.1743 59.5014 19.3236C59.5614 20.4786 59.5913 21.3162 59.5913 21.8488C59.5913 24.6194 58.7287 26.0079 57.0038 26.0079C56.2786 26.0079 55.6859 25.7505 55.2184 25.2413C54.7453 24.7266 54.5116 24.1107 54.5116 23.3799V11.0361C54.5116 10.3106 54.7453 9.69536 55.2184 9.19844C55.6859 8.6956 56.2849 8.44486 57.0098 8.44486C58.2077 8.44486 59.0401 8.97625 59.5073 10.0363C60.3161 8.75569 61.7475 8.11514 63.7965 8.11514C65.6954 8.11514 67.2051 8.61737 68.3134 9.61672C69.4456 10.6887 70.0082 12.1601 70.0082 14.0335V23.3799ZM85.7205 22.8482C85.7205 23.9789 84.985 24.8762 83.5106 25.5352C82.3431 26.0671 81.0741 26.3405 79.7909 26.3366C77.268 26.3366 75.22 25.4268 73.6388 23.6144C72.1229 21.8847 71.3622 19.7479 71.3622 17.2112C71.3622 14.6674 72.1351 12.5197 73.6864 10.7601C75.2377 8.99514 77.268 8.11514 79.7909 8.11514C81.2463 8.11514 82.4982 8.33047 83.5412 8.75569C84.9959 9.33016 85.7205 10.2274 85.7205 11.4484C85.7205 12.0643 85.5293 12.6089 85.1456 13.0819C84.7625 13.5486 84.2706 13.7881 83.6726 13.7881C83.2643 13.7881 82.6771 13.6504 81.911 13.3818C81.1442 13.1058 80.5339 12.9741 80.0848 12.9741C78.8921 12.9741 77.9634 13.399 77.2986 14.2484C76.6815 15.0147 76.3699 15.9961 76.3699 17.2112C76.3699 18.3538 76.6455 19.3236 77.2034 20.1075C77.8191 21.0232 78.6887 21.4777 79.7964 21.4777C80.2883 21.4777 80.9585 21.334 81.8151 21.0401C82.6724 20.7539 83.2895 20.6043 83.6726 20.6043C84.2298 20.6043 84.7081 20.8432 85.1163 21.3102C85.5178 21.7828 85.7205 22.291 85.7205 22.8482ZM103.925 23.3799C103.925 24.1107 103.692 24.7266 103.224 25.2413C102.751 25.7505 102.153 26.0079 101.427 26.0079C100.337 26.0079 99.5583 25.4749 99.0909 24.4158C98.0431 25.6968 96.6109 26.3366 94.7963 26.3366C92.4727 26.3366 90.5676 25.3611 89.0932 23.4224C87.7515 21.6511 87.0759 19.5807 87.0759 17.2112C87.0759 14.8415 87.7515 12.7711 89.0932 10.9936C90.5915 9.07209 92.4897 8.11514 94.7963 8.11514C96.6109 8.11514 98.0431 8.75569 99.0909 10.0363C99.5583 8.97625 100.337 8.44486 101.427 8.44486C102.134 8.44486 102.728 8.70158 103.207 9.2104C103.686 9.72452 103.925 10.3292 103.925 11.0361V23.3799ZM98.9174 17.2112C98.9174 16.0621 98.6425 15.0923 98.0907 14.3082C97.4498 13.4169 96.5871 12.9741 95.5032 12.9741C94.3948 12.9741 93.5328 13.4169 92.915 14.3082C92.3584 15.0923 92.0836 16.0621 92.0836 17.2112C92.0836 18.3538 92.3516 19.3353 92.8844 20.1429C93.5205 21.0342 94.3948 21.4777 95.5032 21.4777C96.6109 21.4777 97.4736 21.0342 98.0907 20.1429C98.6425 19.3353 98.9174 18.3538 98.9174 17.2112ZM116.703 10.706C116.703 11.7771 116.182 12.513 115.139 12.9137C114.175 13.2375 113.216 13.5672 112.258 13.9072C111.209 14.5062 110.688 15.619 110.688 17.235V23.3799C110.688 24.1107 110.448 24.7266 109.982 25.2413C109.508 25.7505 108.909 26.0079 108.184 26.0079C107.454 26.0079 106.854 25.7505 106.388 25.2413C105.914 24.7266 105.681 24.1107 105.681 23.3799V11.0361C105.681 10.3106 105.914 9.69536 106.381 9.19844C106.854 8.6956 107.454 8.44486 108.179 8.44486C109.376 8.44486 110.209 8.97625 110.677 10.0363C111.749 8.75569 112.899 8.11514 114.139 8.11514C114.845 8.11514 115.451 8.37193 115.954 8.88068C116.45 9.39548 116.703 10.0058 116.703 10.706ZM129.768 10.9336C129.768 12.0464 129.33 12.7466 128.463 13.0464C128.036 13.1957 127.143 13.2733 125.783 13.2733V23.3799C125.783 24.1107 125.544 24.7266 125.078 25.2413C124.604 25.7505 124.005 26.0079 123.28 26.0079C122.574 26.0079 121.974 25.7505 121.494 25.2413C121.016 24.7266 120.776 24.1107 120.776 23.3799V13.2733C119.746 13.2733 118.997 13.1416 118.524 12.8849C117.878 12.5257 117.558 11.8732 117.558 10.9336C117.558 9.9945 117.888 9.35402 118.553 9.01241C119.003 8.76099 119.746 8.62994 120.776 8.62994V6.48755C120.776 3.9684 121.608 2.71191 123.28 2.71191C124.945 2.71191 125.783 3.9684 125.783 6.48755V8.62994C127.143 8.62994 128.036 8.70757 128.463 8.85683C129.33 9.15603 129.768 9.85088 129.768 10.9336ZM170 7.89492C169.986 6.35888 167.145 5.66165 159.79 5.66165C142.533 5.66165 138.154 4.92527 133.469 0C135.44 2.95735 136.519 8.50427 154.759 8.22824C173.79 7.93536 162.18 13.1303 158.802 18.9996C164.894 13.5679 169.982 9.98757 170 7.91715V7.89492ZM145.749 23.6678C145.749 25.0956 144.573 26.2703 143.144 26.2706C141.7 26.2706 140.532 25.1044 140.532 23.6678C140.532 23.6672 140.532 23.6665 140.532 23.6658C140.532 22.2357 141.71 21.0588 143.142 21.0588C143.143 21.0588 143.143 21.0588 143.144 21.0588C144.583 21.0588 145.749 22.2253 145.749 23.6678ZM157.634 23.6678C157.633 25.0956 156.457 26.2703 155.028 26.2706C153.586 26.2706 152.417 25.1044 152.417 23.6678C152.417 23.6672 152.417 23.6665 152.417 23.6658C152.417 22.2357 153.595 21.0588 155.027 21.0588C155.027 21.0588 155.027 21.0588 155.028 21.0588C156.467 21.0588 157.634 22.2253 157.634 23.6678Z" fill="#2D2D2D"/>
</g>
<defs>
<clipPath id="clip0_57_244">
<rect width="170" height="34" fill="white"/>
</clipPath>
</defs>
</svg>
