<svg width="750" height="334" viewBox="0 0 750 334" fill="none" xmlns="http://www.w3.org/2000/svg">
<g clip-path="url(#clip0_16189_31)">
<path d="M478.76 330.51C482.156 331.625 485.776 331.878 489.294 331.245C492.812 330.613 496.118 329.115 498.913 326.887C501.708 324.659 503.905 321.771 505.307 318.483C506.708 315.195 507.269 311.609 506.94 308.05C494.11 310.57 482.07 316.05 478.76 330.51Z" fill="#EBEBEB"/>
<path d="M434.79 347.6C434.992 347.499 435.203 347.415 435.42 347.35L437.27 346.73C438.87 346.21 441.19 345.45 444.04 344.46C449.75 342.46 457.58 339.62 466.04 335.95C470.25 334.1 474.21 332.22 477.77 330.42C481.33 328.62 484.44 326.84 487.02 325.27C489.051 324.049 491.011 322.714 492.89 321.27C494.21 320.27 494.89 319.56 494.89 319.6C494.759 319.783 494.608 319.951 494.44 320.1C493.988 320.569 493.511 321.013 493.01 321.43C491.17 322.955 489.229 324.355 487.2 325.62C484.65 327.24 481.52 329.02 477.98 330.88C474.44 332.74 470.46 334.61 466.23 336.47C457.78 340.15 449.91 342.97 444.17 344.85C441.3 345.8 438.96 346.5 437.34 346.96L435.47 347.49C435.249 347.555 435.02 347.592 434.79 347.6Z" fill="#E0E0E0"/>
<path d="M241.73 301.78C240.508 305.039 240.115 308.552 240.586 312.001C241.058 315.45 242.38 318.728 244.432 321.539C246.485 324.351 249.205 326.608 252.347 328.107C255.488 329.607 258.953 330.302 262.43 330.13C260.51 317.55 255.67 305.59 241.73 301.78Z" fill="#EBEBEB"/>
<path d="M239.76 295.6C239.84 295.6 240.18 296.98 240.91 299.17C241.859 302.025 243.046 304.795 244.46 307.45C245.893 310.095 247.542 312.617 249.39 314.99C250.82 316.81 251.79 317.87 251.73 317.93C251.449 317.74 251.193 317.515 250.97 317.26C250.5 316.8 249.86 316.11 249.11 315.26C245.177 310.603 242.264 305.173 240.56 299.32C240.24 298.2 240.01 297.32 239.9 296.64C239.797 296.303 239.75 295.952 239.76 295.6Z" fill="#E0E0E0"/>
<path d="M41.8904 49.44C39.9915 54.4935 39.3801 59.9401 40.1114 65.2888C40.8426 70.6375 42.8935 75.7201 46.0792 80.0784C49.2648 84.4367 53.4851 87.9337 58.3594 90.2541C63.2337 92.5745 68.6089 93.6453 74.0004 93.37C71.0004 73.87 63.5304 55.37 41.9304 49.44" fill="#EBEBEB"/>
<path d="M38.8301 39.88C39.0332 40.3608 39.1906 40.8597 39.3001 41.37C39.5601 42.37 39.9701 43.73 40.5201 45.44C41.971 49.8772 43.8045 54.1801 46.0001 58.3C48.2125 62.4174 50.7824 66.3324 53.6801 70C54.8001 71.4 55.6801 72.52 56.3901 73.27C56.7521 73.6487 57.0863 74.0531 57.3901 74.48C56.9779 74.1592 56.5963 73.8011 56.2501 73.41C55.5401 72.69 54.5601 71.61 53.4101 70.23C47.3713 62.9899 42.8699 54.5961 40.1801 45.56C39.6701 43.84 39.3101 42.42 39.1101 41.44C38.98 40.9273 38.8865 40.406 38.8301 39.88Z" fill="#E0E0E0"/>
<path d="M75.6798 248.48C72.966 250.663 70.8378 253.487 69.4868 256.697C68.1359 259.908 67.6046 263.403 67.9409 266.87C68.2771 270.337 69.4703 273.665 71.4131 276.556C73.3558 279.447 75.987 281.809 79.0698 283.43C83.8198 271.62 85.7398 258.87 75.6798 248.48Z" fill="#EBEBEB"/>
<path d="M77.1204 242.16C77.2004 242.16 76.7904 243.57 76.3004 245.82C75.0057 251.71 74.7519 257.782 75.5504 263.76C75.8504 266.05 76.1504 267.46 76.0604 267.48C75.9171 267.16 75.813 266.825 75.7504 266.48C75.5804 265.85 75.3804 264.93 75.1804 263.79C74.1783 257.776 74.4371 251.619 75.9404 245.71C76.2304 244.58 76.5104 243.71 76.7304 243.07C76.8251 242.753 76.9559 242.447 77.1204 242.16Z" fill="#E0E0E0"/>
<path d="M229.89 0.389992C230.138 0.0309944 230.419 -0.30382 230.73 -0.610008C231.3 -1.24001 232.11 -2.18001 233.07 -3.36001C238.112 -9.52022 242.017 -16.5298 244.6 -24.06C245.1 -25.5 245.47 -26.68 245.71 -27.5C245.81 -27.9335 245.954 -28.3557 246.14 -28.76C246.109 -28.3157 246.028 -27.8763 245.9 -27.45C245.73 -26.61 245.4 -25.45 244.9 -23.95C242.501 -16.2903 238.556 -9.20414 233.31 -3.13C232.31 -1.97001 231.45 -1.06001 230.83 -0.470009C230.547 -0.15147 230.232 0.136753 229.89 0.389992Z" fill="#E0E0E0"/>
<path d="M317.37 336.37C318.318 338.238 319.716 339.842 321.437 341.036C323.158 342.231 325.149 342.979 327.231 343.214C329.313 343.449 331.421 343.164 333.365 342.383C335.309 341.602 337.029 340.35 338.37 338.74C332.01 334.46 324.73 331.74 317.37 336.37Z" fill="#EBEBEB"/>
<path d="M650.311 8.09C653.665 9.01308 657.196 9.08824 660.587 8.30872C663.978 7.5292 667.122 5.91942 669.737 3.62406C672.351 1.3287 674.355 -1.58032 675.567 -4.84159C676.779 -8.10286 677.161 -11.6142 676.681 -15.06C664.321 -12.06 652.861 -6.13 650.311 8.09Z" fill="#EBEBEB"/>
<path d="M644.33 10.61C644.33 10.53 645.66 10.06 647.78 9.14001C653.315 6.7506 658.391 3.41392 662.78 -0.71999C664.47 -2.30999 665.43 -3.36999 665.5 -3.30999C665.336 -3.01486 665.135 -2.74253 664.9 -2.49999C664.49 -1.98999 663.9 -1.28999 663.04 -0.499989C658.749 3.8278 653.603 7.2132 647.93 9.44001C646.85 9.86001 645.93 10.17 645.33 10.34C645.009 10.4715 644.673 10.5622 644.33 10.61Z" fill="#E0E0E0"/>
<path d="M674 312.88C679.901 311.514 685.369 308.703 689.914 304.7C694.459 300.697 697.938 295.627 700.038 289.946C702.138 284.265 702.794 278.152 701.946 272.155C701.098 266.158 698.773 260.466 695.18 255.59C678.75 270.48 666.09 289 674 312.88Z" fill="#EBEBEB"/>
<path d="M666.91 321.68C667.25 321.2 667.625 320.746 668.03 320.32C668.78 319.48 669.83 318.23 671.08 316.66C672.33 315.09 673.77 313.16 675.26 310.96C676.75 308.76 678.26 306.25 679.73 303.55C681.2 300.85 682.4 298.19 683.43 295.73C684.46 293.27 685.27 291.02 685.88 289.1C686.49 287.18 686.95 285.62 687.24 284.53C687.365 283.956 687.539 283.394 687.76 282.85C687.696 283.434 687.589 284.012 687.44 284.58C687.21 285.69 686.8 287.27 686.23 289.21C685.66 291.15 684.87 293.43 683.88 295.92C682.89 298.41 681.64 301.07 680.19 303.8C678.806 306.351 677.294 308.831 675.66 311.23C674.13 313.43 672.66 315.34 671.37 316.89C670.08 318.44 668.97 319.66 668.18 320.46C667.79 320.9 667.365 321.308 666.91 321.68Z" fill="#E0E0E0"/>
<path d="M538.22 186.8C531.91 151.55 501.64 120.8 465.95 117.86C446.5 116.28 426.95 122.41 407.58 120.07C391.163 118.021 376.057 110.057 365.09 97.67C349.09 79.47 343.68 53.58 326.74 36.26C303.4 12.37 262.67 12 234.27 29.57C205.87 47.14 188.7 78.85 180.84 111.3L180.53 121.17C178.82 154.83 187.68 194 207.21 224C227 254.4 240.01 267 276.07 288.81C306.69 307.37 366.65 315.53 402.45 316.39C438.25 317.25 475.02 306.59 501.95 282.97C528.88 259.35 544.54 222.05 538.22 186.8Z" fill="#018294"/>
<g opacity="0.8">
<path d="M538.22 186.8C531.91 151.55 501.64 120.8 465.95 117.86C446.5 116.28 426.95 122.41 407.58 120.07C391.163 118.021 376.057 110.057 365.09 97.67C349.09 79.47 343.68 53.58 326.74 36.26C303.4 12.37 262.67 12 234.27 29.57C205.87 47.14 188.7 78.85 180.84 111.3L180.53 121.17C178.82 154.83 187.68 194 207.21 224C227 254.4 240.01 267 276.07 288.81C306.69 307.37 366.65 315.53 402.45 316.39C438.25 317.25 475.02 306.59 501.95 282.97C528.88 259.35 544.54 222.05 538.22 186.8Z" fill="white"/>
</g>
<path d="M573.315 312.655C574.683 303.227 568.15 294.474 558.722 293.106C549.294 291.737 540.541 298.271 539.173 307.699C537.804 317.127 544.337 325.879 553.765 327.248C563.193 328.617 571.946 322.083 573.315 312.655Z" fill="#018294"/>
<path opacity="0.8" d="M573.315 312.655C574.683 303.227 568.15 294.474 558.722 293.106C549.294 291.737 540.541 298.271 539.173 307.699C537.804 317.127 544.337 325.879 553.765 327.248C563.193 328.617 571.946 322.083 573.315 312.655Z" fill="white"/>
<path d="M435.161 177.45C435.487 211.89 427.981 238.223 412.641 256.45C397.301 274.677 376.301 283.91 349.641 284.15C322.841 284.41 301.537 275.583 285.731 257.67C269.924 239.757 261.851 213.583 261.511 179.15L260.931 118.59C260.597 84.2833 268.104 57.95 283.451 39.59C298.797 21.23 319.867 11.9366 346.661 11.71C373.327 11.45 394.571 20.34 410.391 38.38C426.211 56.42 434.281 82.59 434.601 116.89L435.161 177.45ZM390.331 110.53C390.111 88.8433 386.334 72.83 379.001 62.49C371.667 52.15 361.001 47.0433 347.001 47.17C333.047 47.3033 322.517 52.6133 315.411 63.1C308.304 73.5867 304.834 89.67 305.001 111.35L305.701 184.94C305.907 206.74 309.731 222.843 317.171 233.25C324.611 243.657 335.301 248.793 349.241 248.66C363.181 248.527 373.677 243.217 380.731 232.73C387.784 222.243 391.207 206.04 391.001 184.12L390.331 110.53Z" fill="#018294"/>
<g opacity="0.4">
<path d="M435.161 177.45C435.487 211.89 427.981 238.223 412.641 256.45C397.301 274.677 376.301 283.91 349.641 284.15C322.841 284.41 301.537 275.583 285.731 257.67C269.924 239.757 261.851 213.583 261.511 179.15L260.931 118.59C260.597 84.2833 268.104 57.95 283.451 39.59C298.797 21.23 319.867 11.9366 346.661 11.71C373.327 11.45 394.571 20.34 410.391 38.38C426.211 56.42 434.281 82.59 434.601 116.89L435.161 177.45ZM390.331 110.53C390.111 88.8433 386.334 72.83 379.001 62.49C371.667 52.15 361.001 47.0433 347.001 47.17C333.047 47.3033 322.517 52.6133 315.411 63.1C308.304 73.5867 304.834 89.67 305.001 111.35L305.701 184.94C305.907 206.74 309.731 222.843 317.171 233.25C324.611 243.657 335.301 248.793 349.241 248.66C363.181 248.527 373.677 243.217 380.731 232.73C387.784 222.243 391.207 206.04 391.001 184.12L390.331 110.53Z" fill="black"/>
</g>
<path d="M460.62 177.21C460.953 211.643 453.446 237.977 438.1 256.21C422.753 274.443 401.753 283.677 375.1 283.91C348.3 284.17 326.996 275.34 311.19 257.42C295.383 239.5 287.32 213.32 287 178.88L286.42 118.32C286.086 84.0133 293.593 57.68 308.94 39.32C324.286 20.96 345.356 11.6633 372.15 11.43C398.816 11.1833 420.06 20.0733 435.88 38.1C451.7 56.1267 459.74 82.31 460 116.65L460.62 177.21ZM415.79 110.29C415.576 88.61 411.783 72.61 404.41 62.29C397.036 51.97 386.37 46.8633 372.41 46.97C358.456 47.11 347.926 52.42 340.82 62.9C333.713 73.38 330.26 89.4667 330.46 111.16L331.17 184.74C331.383 206.547 335.206 222.653 342.64 233.06C350.073 243.467 360.763 248.603 374.71 248.47C388.65 248.33 399.146 243.02 406.2 232.54C413.253 222.06 416.673 205.853 416.46 183.92L415.79 110.29Z" fill="#018294"/>
<path d="M286.55 121.92C286.6 122.05 280.69 124.4 273.35 127.16C266.01 129.92 260 132 260 131.91C260 131.82 265.86 129.43 273.2 126.67C280.54 123.91 286.5 121.78 286.55 121.92Z" fill="#018294"/>
<path d="M288 145.85C288.05 145.98 282.14 148.33 274.79 151.09C267.44 153.85 261.46 155.97 261.41 155.84C261.36 155.71 267.27 153.36 274.61 150.6C281.95 147.84 288 145.71 288 145.85Z" fill="#018294"/>
<path d="M289.49 169.78C289.54 169.91 283.63 172.26 276.28 175.02C268.93 177.78 263 179.9 262.9 179.77C262.8 179.64 268.76 177.29 276.1 174.53C283.44 171.77 289.44 169.64 289.49 169.78Z" fill="#018294"/>
<path d="M291 193.71C291.05 193.84 285.14 196.19 277.79 198.95C270.44 201.71 264.45 203.83 264.4 203.7C264.35 203.57 270.27 201.22 277.61 198.46C284.95 195.7 290.91 193.57 291 193.71Z" fill="#018294"/>
<path d="M292.43 217.64C292.142 217.825 291.833 217.976 291.51 218.09C290.91 218.35 290.03 218.71 288.95 219.14C286.77 220.01 283.76 221.14 280.42 222.43C277.08 223.72 274.04 224.79 271.83 225.57C270.73 225.96 269.83 226.27 269.21 226.47C268.891 226.604 268.554 226.692 268.21 226.73C268.497 226.542 268.806 226.391 269.13 226.28C269.73 226.02 270.6 225.66 271.69 225.28C273.86 224.41 276.88 223.28 280.22 221.99C283.56 220.7 286.6 219.62 288.81 218.85C289.91 218.46 290.81 218.15 291.43 217.95C291.746 217.796 292.083 217.692 292.43 217.64Z" fill="#018294"/>
<path d="M299.26 239.53C298.295 240.049 297.292 240.494 296.26 240.86C294.36 241.62 291.73 242.64 288.82 243.74C285.91 244.84 283.25 245.8 281.33 246.47C280.305 246.887 279.248 247.221 278.17 247.47C279.133 246.947 280.136 246.503 281.17 246.14C283.06 245.37 285.69 244.35 288.61 243.26C291.53 242.17 294.17 241.2 296.1 240.53C297.123 240.108 298.18 239.774 299.26 239.53Z" fill="#018294"/>
<path d="M313.89 259.61C313.029 260.089 312.129 260.494 311.2 260.82C309.51 261.5 307.2 262.41 304.58 263.39C301.96 264.37 299.58 265.22 297.9 265.81C296.987 266.18 296.043 266.471 295.08 266.68C295.938 266.196 296.839 265.791 297.77 265.47C299.45 264.79 301.77 263.88 304.39 262.9C307.01 261.92 309.39 261.07 311.07 260.47C311.983 260.1 312.926 259.812 313.89 259.61Z" fill="#018294"/>
<path d="M338.201 272.78C337.338 273.252 336.438 273.654 335.511 273.98C333.821 274.67 331.511 275.58 328.891 276.55C326.271 277.52 323.891 278.38 322.211 278.98C321.298 279.35 320.354 279.638 319.391 279.84C320.251 279.361 321.151 278.956 322.081 278.63C323.771 277.95 326.081 277.04 328.701 276.06C331.321 275.08 333.701 274.23 335.381 273.64C336.291 273.264 337.235 272.976 338.201 272.78Z" fill="#018294"/>
<path d="M411.52 221.71C411.58 221.84 403.99 225.38 394.57 229.62C385.15 233.86 377.46 237.18 377.4 237.05C377.34 236.92 384.93 233.38 394.4 229.14C403.87 224.9 411.46 221.58 411.52 221.71Z" fill="#018294"/>
<path d="M416.5 201.21C416.56 201.34 410.29 204.28 402.5 207.78C394.71 211.28 388.35 214.02 388.29 213.89C388.23 213.76 394.49 210.81 402.29 207.31C410.09 203.81 416.44 201.08 416.5 201.21Z" fill="#018294"/>
<path d="M418.791 178.18C418.851 178.31 412.581 181.25 404.791 184.75C397.001 188.25 390.641 190.99 390.581 190.86C390.521 190.73 396.781 187.78 404.581 184.28C412.381 180.78 418.731 178 418.791 178.18Z" fill="#018294"/>
<path d="M421.081 155.14C421.141 155.27 414.881 158.22 407.081 161.72C399.281 165.22 392.931 167.95 392.871 167.82C392.811 167.69 399.081 164.75 406.871 161.25C414.661 157.75 421.001 155 421.081 155.14Z" fill="#018294"/>
<path d="M423.38 132.11C423.43 132.24 417.17 135.19 409.38 138.69C401.59 142.19 395.23 144.92 395.17 144.79C395.11 144.66 401.38 141.72 409.17 138.21C416.96 134.7 423.32 132 423.38 132.11Z" fill="#018294"/>
<path d="M418.791 111.6C418.851 111.73 412.581 114.68 404.791 118.18C397.001 121.68 390.641 124.41 390.581 124.28C390.521 124.15 396.781 121.2 404.581 117.7C412.381 114.2 418.731 111.47 418.791 111.6Z" fill="#018294"/>
<path d="M418.791 89.52C418.851 89.65 412.581 92.6 404.791 96.1C397.001 99.6 390.641 102.33 390.581 102.2C390.521 102.07 396.781 99.12 404.581 95.62C412.381 92.12 418.731 89.39 418.791 89.52Z" fill="#018294"/>
<path d="M416.5 68.73C416.56 68.86 410.29 71.8 402.5 75.3C394.71 78.8 388.35 81.54 388.29 81.41C388.23 81.28 394.49 78.33 402.29 74.83C410.09 71.33 416.44 68.6 416.5 68.73Z" fill="#018294"/>
<path d="M396.75 54.24C394.004 55.7612 391.176 57.13 388.28 58.34C385.452 59.7052 382.551 60.9138 379.59 61.96C382.332 60.4315 385.16 59.0626 388.06 57.86C390.888 56.4947 393.789 55.2862 396.75 54.24Z" fill="#018294"/>
<path d="M386.19 45.37C383.442 46.8829 380.614 48.2482 377.72 49.46C374.892 50.8253 371.991 52.0338 369.03 53.08C371.777 51.5656 374.604 50.2035 377.5 49C380.328 47.6313 383.229 46.4195 386.19 45.37Z" fill="#018294"/>
<path d="M287.68 92.91C287.73 93.04 281.82 95.39 274.48 98.15C267.14 100.91 261.14 103.04 261.09 102.9C261.04 102.76 266.95 100.42 274.3 97.66C281.65 94.9 287.63 92.78 287.68 92.91Z" fill="#018294"/>
<path d="M295 63.07C295.06 63.2 288.64 65.73 280.69 68.73C272.74 71.73 266.23 74.03 266.18 73.9C266.13 73.77 272.54 71.23 280.5 68.24C288.46 65.25 295 62.93 295 63.07Z" fill="#018294"/>
<path d="M314.27 33.53C314.32 33.67 306.19 36.84 296.11 40.63C286.03 44.42 277.82 47.38 277.77 47.25C277.72 47.12 285.85 43.93 295.93 40.14C306.01 36.35 314.22 33.4 314.27 33.53Z" fill="#018294"/>
<path d="M456.31 222L455.89 221.86L454.69 221.39C454.16 221.2 453.47 221.05 452.69 220.83C451.756 220.648 450.81 220.531 449.86 220.48C445.59 220.21 439.19 221.76 433 226.4C429.649 228.939 426.647 231.908 424.07 235.23C421.2 238.74 418.39 242.71 415.2 246.71C411.954 251.001 408.069 254.768 403.68 257.88C398.875 261.121 393.446 263.321 387.74 264.34C382.034 265.368 376.175 265.173 370.55 263.77C365.358 262.408 360.313 260.536 355.49 258.18C350.84 256.03 346.49 253.84 342.35 252.03C338.5 250.329 334.504 248.981 330.41 248C327.035 247.203 323.578 246.807 320.11 246.82C317.493 246.84 314.889 247.193 312.36 247.87C310.77 248.337 309.224 248.942 307.74 249.68L306.6 250.28C306.474 250.358 306.34 250.422 306.2 250.47L306.57 250.24L307.69 249.59C309.161 248.805 310.705 248.165 312.3 247.68C314.84 246.963 317.462 246.577 320.1 246.53C323.595 246.485 327.083 246.858 330.49 247.64C334.603 248.608 338.619 249.947 342.49 251.64C346.67 253.44 351.02 255.64 355.66 257.76C360.465 260.092 365.49 261.941 370.66 263.28C376.223 264.669 382.018 264.86 387.66 263.84C393.295 262.832 398.659 260.663 403.41 257.47C407.766 254.394 411.625 250.667 414.85 246.42C418.04 242.42 420.85 238.48 423.76 234.96C426.359 231.628 429.385 228.653 432.76 226.11C439.04 221.47 445.53 219.95 449.85 220.29C450.811 220.353 451.767 220.483 452.71 220.68C453.51 220.93 454.2 221.09 454.71 221.3L455.9 221.82L456.31 222Z" fill="white"/>
<path d="M462.62 155.3C462.62 155.35 461.91 155.44 460.67 155.85C458.946 156.481 457.32 157.353 455.84 158.44C453.94 159.77 451.84 161.63 449.43 163.55C446.771 165.625 443.89 167.399 440.84 168.84C435.306 171.493 429.307 173.042 423.18 173.4C422.01 173.5 420.94 173.47 420.01 173.49C419.08 173.51 418.28 173.43 417.63 173.38L416.12 173.23C415.947 173.227 415.774 173.197 415.61 173.14C415.783 173.116 415.958 173.116 416.13 173.14L417.64 173.19H420.01C420.94 173.14 422.01 173.19 423.15 173.03C429.212 172.562 435.134 170.979 440.62 168.36C443.634 166.928 446.489 165.185 449.14 163.16C451.57 161.28 453.68 159.43 455.64 158.16C457.168 157.078 458.855 156.242 460.64 155.68C461.126 155.542 461.621 155.435 462.12 155.36C462.283 155.314 462.452 155.294 462.62 155.3Z" fill="white"/>
<path d="M332 178.47C331.818 178.462 331.637 178.435 331.46 178.39C331.1 178.31 330.57 178.23 329.9 178.04C328.022 177.484 326.221 176.695 324.54 175.69C322.074 174.176 319.733 172.467 317.54 170.58C315.03 168.5 312.35 166.13 309.28 164.01C306.414 161.984 303.196 160.509 299.79 159.66C295.111 158.508 290.22 158.529 285.55 159.72C284.22 160.06 283.5 160.32 283.49 160.27C283.645 160.169 283.813 160.091 283.99 160.04C284.33 159.91 284.83 159.71 285.5 159.52C287.373 158.972 289.302 158.636 291.25 158.52C294.153 158.306 297.071 158.545 299.9 159.23C303.371 160.072 306.652 161.561 309.57 163.62C312.68 165.77 315.36 168.16 317.85 170.25C320.011 172.143 322.311 173.872 324.73 175.42C326.376 176.435 328.13 177.264 329.96 177.89C330.65 178.047 331.331 178.241 332 178.47Z" fill="white"/>
<path d="M332.171 83.94C331.632 84.1899 331.073 84.394 330.501 84.55C329.845 84.7812 329.177 84.9781 328.501 85.14C327.711 85.34 326.821 85.61 325.811 85.79C324.801 85.97 323.711 86.22 322.511 86.37C321.311 86.52 320.041 86.66 318.691 86.78C315.759 86.966 312.817 86.9292 309.891 86.67C306.966 86.3775 304.068 85.866 301.221 85.14C299.921 84.77 298.671 84.43 297.541 84.02C296.411 83.61 295.351 83.23 294.411 82.84C293.471 82.45 292.631 82.04 291.891 81.7C291.151 81.36 290.541 81.03 290.041 80.75C289.511 80.4859 289.003 80.1817 288.521 79.84C289.074 80.044 289.612 80.288 290.131 80.57C290.641 80.82 291.271 81.13 292.011 81.44C292.751 81.75 293.591 82.15 294.551 82.49C295.511 82.83 296.551 83.26 297.681 83.61C298.811 83.96 300.041 84.32 301.341 84.67C306.996 86.0963 312.838 86.646 318.661 86.3C320.001 86.19 321.271 86.12 322.461 85.94C323.651 85.76 324.741 85.61 325.741 85.43C326.741 85.25 327.631 85.03 328.421 84.86C329.211 84.69 329.891 84.51 330.421 84.36C330.993 84.1783 331.578 84.0379 332.171 83.94Z" fill="white"/>
<path d="M456.94 83.69C456.793 83.6359 456.652 83.5654 456.52 83.48L455.36 82.81C454.759 82.4436 454.138 82.1098 453.5 81.81C452.679 81.3691 451.834 80.9719 450.97 80.62L449.47 79.99C448.94 79.78 448.38 79.62 447.8 79.42C446.66 79 445.39 78.71 444.06 78.36C438.247 77.0371 432.216 76.986 426.38 78.21C425.111 78.4787 423.856 78.8125 422.62 79.21C422.04 79.4 421.47 79.55 420.94 79.75L419.43 80.35C418.561 80.6898 417.71 81.0737 416.88 81.5C416.236 81.7929 415.612 82.1269 415.01 82.5L413.83 83.15C413.56 83.29 413.41 83.36 413.4 83.34C413.514 83.2304 413.642 83.1362 413.78 83.06L414.9 82.32C415.493 81.9257 416.111 81.5716 416.75 81.26C417.571 80.7991 418.42 80.3883 419.29 80.03L420.8 79.39C421.33 79.18 421.91 79.02 422.49 78.82C423.733 78.4006 424.999 78.0501 426.28 77.77C432.18 76.4761 438.295 76.5307 444.17 77.93C445.51 78.29 446.79 78.6 447.94 79.04C448.52 79.25 449.09 79.42 449.61 79.65L451.12 80.31C451.981 80.6907 452.822 81.1146 453.64 81.58C454.27 81.9067 454.878 82.2741 455.46 82.68L456.58 83.44C456.83 83.57 457 83.67 456.94 83.69Z" fill="white"/>
<path d="M395.8 15.76C395.575 15.9299 395.334 16.0773 395.08 16.2L393 17.35C391.15 18.35 388.47 19.74 385.11 21.42C378.41 24.73 369 29.26 357.86 32.08C352.623 33.3965 347.258 34.1408 341.86 34.3C337.454 34.4287 333.049 34.0496 328.73 33.17C325.819 32.5855 322.972 31.7181 320.23 30.58C319.23 30.2 318.54 29.8 318.04 29.58C317.781 29.4685 317.53 29.3382 317.29 29.19C317.564 29.2608 317.828 29.3614 318.08 29.49C318.6 29.68 319.32 30.05 320.31 30.4C323.062 31.4598 325.903 32.2697 328.8 32.82C333.099 33.6412 337.476 33.9766 341.85 33.82C347.205 33.634 352.525 32.8798 357.72 31.57C368.79 28.77 378.21 24.32 384.94 21.09L392.94 17.16L395 16.1C395.259 15.9693 395.526 15.8558 395.8 15.76Z" fill="white"/>
<path d="M195.06 190L228.49 191.46L226.94 226.89L193.51 225.43L190.94 284.3L146.94 282.38L149.51 223.51L36 218.55L36.09 191.55L157.09 17.75L202.51 19.75L195.06 190ZM80.06 185L151.06 188.1L155.74 80.72L154.67 80.31L150.67 87.96L80.06 185Z" fill="#018294"/>
<g opacity="0.4">
<path d="M195.06 190L228.49 191.46L226.94 226.89L193.51 225.43L190.94 284.3L146.94 282.38L149.51 223.51L36 218.55L36.09 191.55L157.09 17.75L202.51 19.75L195.06 190ZM80.06 185L151.06 188.1L155.74 80.72L154.67 80.31L150.67 87.96L80.06 185Z" fill="black"/>
</g>
<path d="M223.001 191.22L256.431 192.68L254.881 228.11L221.451 226.65L218.881 285.52L174.881 283.6L177.451 224.73L63.8906 219.73L63.9806 192.73L185.001 19L230.431 21L223.001 191.22ZM108.001 186.22L179.051 189.32L183.731 81.94L182.661 81.53L178.661 89.18L108.001 186.22Z" fill="#018294"/>
<path d="M64.5902 197.92C64.2543 198.163 63.892 198.368 63.5102 198.53C62.8002 198.89 61.7602 199.39 60.5102 199.99C57.9402 201.2 54.3502 202.81 50.3402 204.51C46.3302 206.21 42.6802 207.65 40.0202 208.66C38.6902 209.16 37.6002 209.55 36.8502 209.81C36.4663 209.969 36.0677 210.09 35.6602 210.17C36.011 209.944 36.3868 209.759 36.7802 209.62L39.8802 208.31L50.1002 204L60.3202 199.63L63.4302 198.31C63.8025 198.141 64.1912 198.01 64.5902 197.92Z" fill="#018294"/>
<path d="M80.87 168C80.3854 168.298 79.8809 168.562 79.36 168.79C78.36 169.27 76.94 169.95 75.16 170.79C71.59 172.41 66.64 174.58 61.16 176.91C55.68 179.24 50.61 181.23 47 182.65C45.18 183.37 43.7 183.93 42.66 184.3C42.1374 184.523 41.5951 184.698 41.04 184.82C41.5395 184.547 42.0574 184.31 42.59 184.11L46.86 182.31L60.97 176.38L75.05 170.38L79.32 168.57C79.8178 168.332 80.3367 168.141 80.87 168Z" fill="#018294"/>
<path d="M100.74 141.27C100.237 141.581 99.7082 141.848 99.1599 142.07C98.1599 142.55 96.6299 143.23 94.7699 144.07C91.0399 145.7 85.8699 147.87 80.1299 150.2C74.3899 152.53 69.1299 154.56 65.3399 155.99C63.4399 156.7 61.8899 157.26 60.8199 157.63C60.2735 157.854 59.7078 158.028 59.1299 158.15C59.6539 157.878 60.195 157.641 60.7499 157.44L65.2099 155.64L79.9299 149.71L94.6199 143.71L99.0799 141.9C99.6161 141.647 100.171 141.437 100.74 141.27Z" fill="#018294"/>
<path d="M180.33 172.11C179.989 172.346 179.624 172.544 179.24 172.7C178.53 173.05 177.49 173.53 176.19 174.11C173.61 175.28 170.01 176.83 166 178.46C161.99 180.09 158.32 181.46 155.66 182.46C154.32 182.94 153.24 183.32 152.49 183.57C152.104 183.717 151.706 183.828 151.3 183.9C151.648 183.684 152.021 183.509 152.41 183.38L155.53 182.12L165.81 178L176.05 173.8L179.16 172.53C179.533 172.347 179.926 172.207 180.33 172.11Z" fill="#018294"/>
<path d="M177.09 227.05C176.764 227.285 176.411 227.483 176.04 227.64C175.35 227.98 174.34 228.47 173.09 229.05C170.59 230.22 167.09 231.77 163.22 233.39C159.35 235.01 155.77 236.39 153.22 237.39C151.92 237.87 150.87 238.25 150.14 238.49C149.767 238.646 149.378 238.76 148.98 238.83C149.319 238.613 149.682 238.435 150.06 238.3L153.06 237.04L163.06 232.93L172.98 228.73L175.98 227.47C176.335 227.292 176.707 227.151 177.09 227.05Z" fill="#018294"/>
<path d="M176.631 246.31C176.32 246.54 175.985 246.735 175.631 246.89C174.941 247.24 173.931 247.72 172.631 248.31C170.131 249.47 166.631 251.02 162.751 252.65C158.871 254.28 155.311 255.65 152.751 256.65C151.461 257.13 150.411 257.51 149.671 257.76C149.303 257.92 148.917 258.031 148.521 258.09C148.863 257.882 149.224 257.708 149.601 257.57L152.601 256.31L162.601 252.2L172.531 248L175.531 246.74C175.878 246.552 176.247 246.407 176.631 246.31Z" fill="#018294"/>
<path d="M176.171 265.56C175.858 265.789 175.523 265.987 175.171 266.15C174.481 266.5 173.471 266.98 172.171 267.56C169.661 268.73 166.171 270.28 162.291 271.9C158.411 273.52 154.851 274.9 152.291 275.9C151.001 276.38 149.941 276.76 149.211 277C148.84 277.153 148.455 277.267 148.061 277.34C148.399 277.123 148.761 276.945 149.141 276.81L152.141 275.56L162.141 271.44L172.071 267.24L175.071 265.98C175.421 265.8 175.79 265.659 176.171 265.56Z" fill="#018294"/>
<path d="M180.85 151.77C180.506 152.001 180.141 152.199 179.76 152.36C179.05 152.71 178.01 153.19 176.76 153.77C174.18 154.94 170.58 156.49 166.57 158.12C162.56 159.75 158.89 161.12 156.23 162.12C154.89 162.6 153.81 162.98 153.06 163.22C152.676 163.373 152.277 163.487 151.87 163.56C152.216 163.337 152.589 163.159 152.98 163.03L156.1 161.77L166.38 157.66L176.62 153.46L179.73 152.2C180.087 152.017 180.463 151.873 180.85 151.77Z" fill="#018294"/>
<path d="M181.37 131.43C181.026 131.661 180.661 131.859 180.28 132.02C179.57 132.36 178.53 132.85 177.23 133.43C174.65 134.6 171.05 136.15 167.04 137.77C163.03 139.39 159.37 140.77 156.7 141.77C155.36 142.25 154.28 142.62 153.53 142.87C153.145 143.023 152.747 143.137 152.34 143.21C152.689 142.986 153.065 142.808 153.46 142.68L156.57 141.42L166.85 137.31L177.09 133.11L180.2 131.85C180.573 131.667 180.966 131.527 181.37 131.43Z" fill="#018294"/>
<path d="M181.89 111.09C181.576 111.31 181.241 111.497 180.89 111.65C180.22 111.98 179.23 112.44 178 113C175.53 114.12 172.11 115.61 168.29 117.15C164.47 118.69 160.97 120.02 158.43 120.93C157.16 121.38 156.13 121.74 155.43 121.93C155.063 122.079 154.681 122.186 154.29 122.25C154.626 122.039 154.985 121.868 155.36 121.74L158.36 120.54L168.15 116.63L177.91 112.63L180.91 111.43C181.223 111.28 181.552 111.166 181.89 111.09Z" fill="#018294"/>
<path d="M184.19 92.08C182.593 92.9443 180.919 93.6574 179.19 94.21C177.516 94.9226 175.778 95.475 174 95.86C175.597 94.9929 177.27 94.2764 179 93.72C180.673 93.0074 182.411 92.4582 184.19 92.08Z" fill="#018294"/>
<path d="M120.57 113.59C120.065 113.893 119.541 114.16 119 114.39C118 114.87 116.47 115.54 114.6 116.39C110.88 118.02 105.71 120.19 99.9597 122.52C94.2097 124.85 88.9597 126.89 85.1797 128.31C83.2797 129.02 81.7297 129.58 80.6597 129.95C80.109 130.165 79.5444 130.342 78.9697 130.48C79.4881 130.194 80.0301 129.953 80.5897 129.76L85.0497 127.97L99.7697 122L114.46 116L118.91 114.19C119.449 113.953 120.004 113.753 120.57 113.59Z" fill="#018294"/>
<path d="M140.411 85.9C139.907 86.2107 139.379 86.4784 138.831 86.7C137.831 87.18 136.301 87.86 134.441 88.7C130.721 90.32 125.541 92.5 119.801 94.82C114.061 97.14 108.801 99.19 105.021 100.61C103.111 101.33 101.571 101.89 100.491 102.26C99.9467 102.482 99.3846 102.656 98.8105 102.78C99.3291 102.504 99.8672 102.267 100.421 102.07L104.881 100.27L119.601 94.34L134.301 88.34L138.751 86.52C139.288 86.2727 139.843 86.0654 140.411 85.9Z" fill="#018294"/>
<path d="M158.741 58.22C158.233 58.5236 157.706 58.7909 157.161 59.02C156.161 59.5 154.631 60.17 152.771 61.02C149.051 62.65 143.871 64.82 138.131 67.15C132.391 69.48 127.131 71.52 123.351 72.94C121.451 73.65 119.901 74.21 118.831 74.58C118.28 74.7947 117.715 74.9718 117.141 75.11C117.659 74.824 118.201 74.5831 118.761 74.39L123.221 72.6L137.941 66.67L152.631 60.67L157.081 58.86C157.614 58.5982 158.17 58.3841 158.741 58.22Z" fill="#018294"/>
<path d="M177.82 31.6C177.311 31.9008 176.784 32.168 176.24 32.4C175.24 32.88 173.71 33.55 171.85 34.4C168.12 36.03 162.95 38.2 157.21 40.53C151.47 42.86 146.21 44.9 142.42 46.32C140.52 47.03 138.98 47.59 137.9 47.96C137.35 48.178 136.786 48.3552 136.21 48.49C136.73 48.2065 137.271 47.9658 137.83 47.77L142.29 45.98L157 40L171.69 34L176.15 32.19C176.691 31.9524 177.25 31.7552 177.82 31.6Z" fill="#018294"/>
<path d="M228.441 72.27C228.273 72.5117 228.079 72.7332 227.861 72.93C227.295 73.5512 226.691 74.1357 226.051 74.68C223.718 76.7164 221.1 78.4009 218.281 79.68C214.075 81.5699 209.531 82.5903 204.921 82.68C202.196 82.7303 199.476 82.4244 196.831 81.77C194.007 81.0467 191.268 80.0242 188.661 78.72C183.281 76.1 178.501 73.01 173.831 70.86C169.737 68.8533 165.282 67.6903 160.731 67.44C157.664 67.2828 154.603 67.8551 151.801 69.11C151.045 69.4642 150.319 69.8789 149.631 70.35C149.395 70.5241 149.148 70.6811 148.891 70.82C149.104 70.6208 149.331 70.437 149.571 70.27C150.242 69.7598 150.958 69.3113 151.711 68.93C154.516 67.5902 157.604 66.9519 160.711 67.07C165.327 67.2889 169.849 68.4494 174.001 70.48C178.721 72.63 183.521 75.71 188.851 78.31C191.432 79.5881 194.14 80.5936 196.931 81.31C199.53 81.9579 202.202 82.2671 204.881 82.23C212.557 82.1245 219.967 79.3969 225.881 74.5C226.731 73.82 227.331 73.22 227.751 72.83C227.966 72.6255 228.196 72.4382 228.441 72.27Z" fill="white"/>
<path d="M214.52 22.83C214.117 23.1099 213.692 23.3573 213.25 23.57C212.42 24.02 211.18 24.57 209.62 25.27C207.792 26.039 205.922 26.7067 204.02 27.27C199.36 28.6611 194.541 29.4475 189.68 29.61C187.68 29.6829 185.676 29.6429 183.68 29.49C181.99 29.36 180.68 29.2 179.68 29.03C179.193 28.9753 178.711 28.8783 178.24 28.74C178.732 28.7228 179.224 28.753 179.71 28.83C180.64 28.94 182 29.04 183.71 29.12C185.42 29.2 187.4 29.22 189.62 29.12C192.025 29.0008 194.422 28.7538 196.8 28.38C199.159 27.9747 201.496 27.4473 203.8 26.8C205.93 26.18 207.8 25.54 209.39 24.92C210.98 24.3 212.21 23.77 213.07 23.38C213.535 23.1509 214.02 22.9668 214.52 22.83Z" fill="white"/>
<path d="M143.52 133.89C143.19 133.585 142.889 133.25 142.62 132.89L140.26 130.07C137.626 127.005 134.828 124.084 131.88 121.32C130.279 119.802 128.519 118.46 126.63 117.32C125.085 116.396 123.394 115.74 121.63 115.38C119.993 115.087 118.317 115.087 116.68 115.38C116.68 115.38 116.79 115.32 117.01 115.25C117.335 115.142 117.67 115.065 118.01 115.02C119.238 114.814 120.492 114.814 121.72 115.02C123.542 115.337 125.293 115.977 126.89 116.91C128.831 118.054 130.633 119.42 132.26 120.98C135.23 123.75 138.003 126.724 140.56 129.88C141.56 131.09 142.3 132.1 142.8 132.8C143.078 133.137 143.319 133.502 143.52 133.89Z" fill="white"/>
<path d="M223.29 164.1C223.29 164.1 223.16 164.22 222.9 164.4C222.64 164.58 222.25 164.87 221.71 165.17C220.209 166.05 218.633 166.797 217 167.4C211.592 169.442 205.717 169.911 200.053 168.752C194.39 167.593 189.171 164.853 185 160.85C183.736 159.662 182.584 158.36 181.56 156.96C181.19 156.47 180.95 156.06 180.77 155.79C180.59 155.52 180.51 155.37 180.53 155.36C180.954 155.831 181.351 156.325 181.72 156.84C182.801 158.174 183.981 159.424 185.25 160.58C189.424 164.438 194.575 167.08 200.143 168.221C205.711 169.361 211.486 168.956 216.84 167.05C218.462 166.488 220.037 165.799 221.55 164.99C222.114 164.662 222.695 164.365 223.29 164.1Z" fill="white"/>
<path d="M252.42 227.42C252.42 227.42 252.32 227.27 252.14 226.95C251.96 226.63 251.68 226.17 251.34 225.57C250.337 223.792 249.193 222.096 247.92 220.5L246.56 218.9L245.83 218.03L244.98 217.2L243.18 215.42L241.08 213.68C237.726 211.015 234.026 208.818 230.08 207.15C225.317 205.136 220.243 203.955 215.08 203.66C209.137 203.341 203.195 204.296 197.65 206.46C191.8 208.76 186.15 212.23 180.17 215.59C177.142 217.34 174.006 218.896 170.78 220.25C167.438 221.657 163.913 222.583 160.31 223C156.705 223.363 153.066 223.143 149.53 222.35C146.109 221.597 142.779 220.474 139.6 219C133.646 216.119 127.981 212.677 122.68 208.72C117.55 205.07 112.68 201.54 107.87 198.72C103.448 196.012 98.6543 193.964 93.6404 192.64C89.4857 191.617 85.1835 191.333 80.9304 191.8C77.7193 192.133 74.5935 193.038 71.7004 194.47C69.8904 195.397 68.2095 196.557 66.7004 197.92L65.5404 199C65.2904 199.25 65.1504 199.37 65.1504 199.37C65.1504 199.37 65.2604 199.23 65.5104 198.96L66.6004 197.79C68.1002 196.388 69.782 195.194 71.6004 194.24C74.5076 192.761 77.6582 191.819 80.9004 191.46C85.189 190.957 89.5328 191.217 93.7304 192.23C98.7844 193.547 103.621 195.588 108.09 198.29C112.96 201.11 117.82 204.63 122.96 208.29C128.241 212.217 133.883 215.632 139.81 218.49C142.951 219.963 146.244 221.086 149.63 221.84C153.117 222.619 156.706 222.836 160.26 222.48C163.807 222.069 167.278 221.16 170.57 219.78C173.775 218.432 176.894 216.889 179.91 215.16C185.91 211.81 191.55 208.33 197.45 206.02C198.906 205.448 200.395 204.967 201.91 204.58C202.66 204.39 203.4 204.16 204.14 204.01L206.38 203.64C209.259 203.211 212.174 203.077 215.08 203.24C220.305 203.551 225.437 204.763 230.25 206.82C234.199 208.529 237.899 210.762 241.25 213.46C241.97 214.07 242.67 214.67 243.35 215.23L245.14 217.04L245.98 217.88C246.23 218.18 246.48 218.47 246.71 218.76C247.19 219.33 247.64 219.87 248.06 220.39C249.323 222.003 250.444 223.723 251.41 225.53C251.737 226.143 251.987 226.613 252.16 226.94C252.35 227.25 252.42 227.42 252.42 227.42Z" fill="white"/>
<path d="M222.2 269.19C222.037 269.256 221.865 269.299 221.69 269.32L220.21 269.6C219.433 269.757 218.649 269.874 217.86 269.95C216.94 270.04 215.86 270.19 214.72 270.22L212.88 270.3C212.25 270.3 211.58 270.3 210.88 270.3C209.51 270.3 208.04 270.17 206.5 270.05C203.163 269.685 199.861 269.043 196.63 268.13C193.415 267.162 190.284 265.931 187.27 264.45C185.91 263.72 184.6 263.05 183.44 262.3C182.86 261.94 182.28 261.61 181.75 261.3L180.25 260.25C179.25 259.6 178.48 258.91 177.75 258.33C177.119 257.846 176.515 257.329 175.94 256.78C175.51 256.36 175.14 256.02 174.85 255.78C174.715 255.665 174.594 255.534 174.49 255.39C174.645 255.476 174.789 255.58 174.92 255.7L176.08 256.7C176.57 257.12 177.18 257.63 177.93 258.17C178.68 258.71 179.48 259.39 180.46 260.02L181.97 261.02C182.5 261.37 183.08 261.69 183.66 262.02C184.82 262.75 186.13 263.4 187.49 264.11C193.471 267.058 199.922 268.936 206.55 269.66C208.08 269.79 209.55 269.95 210.9 269.96C211.58 269.96 212.24 270.02 212.9 269.96H214.72C215.88 269.96 216.93 269.83 217.85 269.77C218.77 269.71 219.56 269.61 220.2 269.51L221.69 269.33C221.852 269.258 222.024 269.211 222.2 269.19Z" fill="white"/>
<path d="M629.32 190.41L662.62 187.16L666.07 222.45L632.77 225.71L638.5 284.35L594.7 288.64L589 230L475.84 241.06L472.13 214.33L567.48 25.24L612.73 20.81L629.32 190.41ZM514.74 201.62L585.51 194.7L575.05 87.7L573.93 87.45L571.07 95.59L514.74 201.62Z" fill="#018294"/>
<g opacity="0.4">
<path d="M629.32 190.41L662.62 187.16L666.07 222.45L632.77 225.71L638.5 284.35L594.7 288.64L589 230L475.84 241.06L472.13 214.33L567.48 25.24L612.73 20.81L629.32 190.41ZM514.74 201.62L585.51 194.7L575.05 87.7L573.93 87.45L571.07 95.59L514.74 201.62Z" fill="black"/>
</g>
<path d="M657.17 187.69L690.47 184.43L693.93 219.73L660.62 223L666.36 281.65L622.55 285.93L616.82 227.29L503.69 238.33L500 211.61L595.35 22.52L640.6 18.09L657.17 187.69ZM542.6 198.89L613.37 192L602.91 85L601.78 84.74L598.93 92.88L542.6 198.89Z" fill="#018294"/>
<path d="M501.26 216.61C500.954 216.894 500.619 217.145 500.26 217.36C499.61 217.82 498.65 218.46 497.46 219.24C495.07 220.8 491.75 222.9 488.02 225.14C484.29 227.38 480.88 229.33 478.38 230.7C477.14 231.38 476.12 231.93 475.38 232.29C475.022 232.502 474.643 232.676 474.25 232.81C474.554 232.537 474.89 232.302 475.25 232.11L478.14 230.38L487.7 224.69L497.2 218.93L500.09 217.19C500.456 216.952 500.849 216.757 501.26 216.61Z" fill="#018294"/>
<path d="M513.161 184.67C512.727 185.039 512.266 185.373 511.781 185.67C510.881 186.28 509.551 187.15 507.901 188.21C504.601 190.32 500.001 193.21 494.901 196.21C489.801 199.21 485.101 202.02 481.691 203.94C479.991 204.94 478.601 205.67 477.631 206.18C477.139 206.466 476.628 206.717 476.101 206.93C476.551 206.582 477.03 206.271 477.531 206L481.531 203.62L494.661 195.77L507.751 187.86L511.751 185.47C512.2 185.168 512.671 184.901 513.161 184.67Z" fill="#018294"/>
<path d="M529.08 155.44C528.623 155.81 528.138 156.145 527.63 156.44C526.63 157.06 525.29 157.94 523.56 159.01C520.1 161.14 515.28 164.01 509.92 167.13C504.56 170.25 499.67 173 496.1 175C494.32 176 492.87 176.75 491.86 177.27C491.346 177.56 490.811 177.811 490.26 178.02C490.736 177.673 491.237 177.362 491.76 177.09L495.92 174.68L509.66 166.74L523.37 158.74L527.52 156.32C528.017 155.987 528.538 155.693 529.08 155.44Z" fill="#018294"/>
<path d="M612.22 174.78C611.915 175.059 611.579 175.304 611.22 175.51C610.57 175.96 609.6 176.58 608.41 177.34C606.01 178.86 602.67 180.9 598.93 183.08C595.19 185.26 591.75 187.14 589.24 188.46C587.99 189.13 586.97 189.65 586.24 190C585.883 190.207 585.504 190.374 585.11 190.5C585.419 190.239 585.754 190.011 586.11 189.82L589.02 188.14L598.61 182.62L608.16 177.03L611.07 175.34C611.431 175.11 611.817 174.922 612.22 174.78Z" fill="#018294"/>
<path d="M616.74 229.62C616.438 229.903 616.102 230.148 615.74 230.35C615.11 230.79 614.18 231.41 613.02 232.17C610.71 233.67 607.48 235.7 603.86 237.86C600.24 240.02 596.91 241.86 594.48 243.2C593.27 243.86 592.28 244.38 591.59 244.73C591.245 244.937 590.875 245.102 590.49 245.22C590.799 244.962 591.134 244.738 591.49 244.55L594.3 242.88L603.59 237.41L612.83 231.85L615.64 230.18C615.983 229.95 616.352 229.762 616.74 229.62Z" fill="#018294"/>
<path d="M619 248.75C618.697 249.033 618.362 249.278 618 249.48C617.37 249.92 616.44 250.54 615.28 251.3C612.97 252.8 609.74 254.83 606.12 256.98C602.5 259.13 599.17 260.98 596.74 262.33C595.53 262.99 594.54 263.51 593.85 263.86C593.504 264.067 593.135 264.232 592.75 264.35C593.059 264.092 593.394 263.867 593.75 263.68L596.56 262.01L605.85 256.54L615.09 250.98L617.9 249.31C618.243 249.08 618.612 248.892 619 248.75Z" fill="#018294"/>
<path d="M621.24 267.88C620.938 268.163 620.602 268.408 620.24 268.61C619.61 269.05 618.68 269.67 617.52 270.42C615.21 271.93 611.98 273.96 608.36 276.11C604.74 278.26 601.41 280.11 598.98 281.46C597.77 282.12 596.78 282.64 596.09 282.99C595.742 283.191 595.373 283.356 594.99 283.48C595.299 283.222 595.634 282.997 595.99 282.81L598.8 281.14L608.09 275.67L617.33 270.11L620.14 268.44C620.483 268.21 620.852 268.022 621.24 267.88Z" fill="#018294"/>
<path d="M609.87 154.56C609.563 154.84 609.227 155.088 608.87 155.3C608.21 155.74 607.25 156.37 606.05 157.13C603.65 158.64 600.31 160.69 596.57 162.86C592.83 165.03 589.39 166.92 586.89 168.25C585.63 168.91 584.61 169.44 583.89 169.79C583.532 169.997 583.153 170.164 582.76 170.29C583.07 170.031 583.405 169.803 583.76 169.61L586.66 167.93L596.26 162.41L605.81 156.81L608.71 155.13C609.075 154.9 609.464 154.709 609.87 154.56Z" fill="#018294"/>
<path d="M607.52 134.35C607.216 134.633 606.88 134.882 606.52 135.09C605.86 135.53 604.9 136.15 603.7 136.91C601.31 138.43 597.97 140.48 594.22 142.65C590.47 144.82 587.05 146.71 584.54 148.04C583.29 148.7 582.27 149.23 581.54 149.58C581.186 149.79 580.806 149.955 580.41 150.07C580.718 149.81 581.053 149.586 581.41 149.4L584.31 147.71L593.91 142.2L603.46 136.6L606.36 134.91C606.727 134.684 607.115 134.497 607.52 134.35Z" fill="#018294"/>
<path d="M605.181 114.14C604.895 114.409 604.58 114.643 604.241 114.84C603.611 115.27 602.691 115.84 601.551 116.59C599.281 118.04 596.101 119.99 592.551 122.06C589.001 124.13 585.711 125.93 583.321 127.19L580.471 128.65C580.129 128.846 579.767 129.003 579.391 129.12C579.701 128.87 580.036 128.652 580.391 128.47L583.151 126.86L592.301 121.61L601.391 116.27L604.161 114.67C604.48 114.456 604.822 114.278 605.181 114.14Z" fill="#018294"/>
<path d="M604.78 95C603.321 96.0876 601.76 97.032 600.12 97.82C598.559 98.7574 596.915 99.5507 595.21 100.19C596.669 99.1024 598.23 98.158 599.87 97.37C601.43 96.4307 603.074 95.6374 604.78 95Z" fill="#018294"/>
<path d="M544.82 125.24C544.368 125.612 543.886 125.947 543.38 126.24C542.38 126.86 541.03 127.74 539.3 128.81C535.85 130.94 531.03 133.81 525.67 136.93C520.31 140.05 515.42 142.8 511.85 144.74C510.07 145.74 508.61 146.49 507.6 147.01C507.088 147.296 506.556 147.547 506.01 147.76C506.484 147.41 506.985 147.099 507.51 146.83L511.67 144.42L525.41 136.48L539.11 128.48L543.27 126.06C543.766 125.75 544.284 125.476 544.82 125.24Z" fill="#018294"/>
<path d="M560.57 95C560.113 95.3702 559.628 95.7046 559.12 96C558.12 96.62 556.78 97.5 555.05 98.57C551.59 100.7 546.77 103.57 541.42 106.69C536.07 109.81 531.16 112.56 527.59 114.5C525.81 115.5 524.36 116.25 523.35 116.77C522.836 117.06 522.301 117.311 521.75 117.52C522.226 117.173 522.727 116.862 523.25 116.59L527.41 114.18L541.15 106.24L554.86 98.24L559.02 95.82C559.515 95.5072 560.033 95.2331 560.57 95Z" fill="#018294"/>
<path d="M574.83 65.05C574.373 65.4202 573.888 65.7545 573.38 66.05C572.38 66.67 571.04 67.55 569.31 68.62C565.85 70.75 561.03 73.62 555.67 76.74C550.31 79.86 545.42 82.61 541.85 84.55C540.07 85.55 538.62 86.3 537.61 86.82C537.095 87.1077 536.56 87.3583 536.01 87.57C536.486 87.2228 536.987 86.9119 537.51 86.64L541.67 84.23L555.41 76.29L569.12 68.29L573.27 65.87C573.767 65.5556 574.289 65.2814 574.83 65.05Z" fill="#018294"/>
<path d="M590 36C589.543 36.3702 589.058 36.7046 588.55 37C587.6 37.62 586.21 38.5 584.48 39.57C581.02 41.7 576.2 44.57 570.84 47.7C565.48 50.83 560.59 53.56 557.02 55.51C555.24 56.51 553.79 57.25 552.78 57.77C552.266 58.0628 551.731 58.3169 551.18 58.53C551.65 58.1723 552.153 57.8577 552.68 57.59L556.84 55.19L570.58 47.19L584.29 39.19L588.44 36.77C588.94 36.4752 589.461 36.2178 590 36Z" fill="#018294"/>
<path d="M645.81 69.16C645.672 69.4173 645.512 69.6616 645.33 69.89C644.857 70.5896 644.34 71.2577 643.78 71.89C641.757 74.2429 639.398 76.2848 636.78 77.95C632.889 80.4333 628.535 82.1003 623.98 82.85C621.292 83.2799 618.559 83.3572 615.85 83.08C612.952 82.7606 610.096 82.1338 607.33 81.21C601.63 79.38 596.47 76.99 591.54 75.51C587.206 74.1157 582.636 73.6023 578.1 74C575.041 74.279 572.091 75.276 569.49 76.91C568.786 77.3692 568.118 77.8807 567.49 78.44C567.289 78.6508 567.068 78.8417 566.83 79.01C567.008 78.7799 567.205 78.5657 567.42 78.37C568.013 77.7698 568.659 77.2243 569.35 76.74C571.948 75.0161 574.928 73.952 578.03 73.64C582.629 73.157 587.277 73.6198 591.69 75C596.69 76.47 601.85 78.84 607.49 80.67C610.225 81.5777 613.047 82.201 615.91 82.53C618.575 82.8025 621.263 82.7319 623.91 82.32C628.407 81.6047 632.715 79.9965 636.58 77.59C639.174 75.9624 641.529 73.9837 643.58 71.71C644.151 71.0994 644.688 70.4585 645.19 69.79C645.382 69.5655 645.589 69.355 645.81 69.16Z" fill="white"/>
<path d="M625.071 22.17C624.716 22.5075 624.331 22.8121 623.921 23.08C623.161 23.65 622.021 24.4 620.571 25.27C618.869 26.2892 617.113 27.2139 615.311 28.04C613.096 29.0407 610.826 29.9121 608.511 30.65C606.187 31.365 603.822 31.9427 601.431 32.38C599.478 32.7221 597.508 32.9624 595.531 33.1C593.841 33.21 592.471 33.23 591.531 33.2C591.039 33.2207 590.546 33.1906 590.061 33.11C590.543 33.0277 591.032 32.9909 591.521 33C592.461 33 593.821 32.88 595.521 32.73C597.221 32.58 599.181 32.31 601.361 31.91C603.722 31.4457 606.058 30.8616 608.361 30.16C610.658 29.4278 612.914 28.5732 615.121 27.6C617.121 26.69 618.931 25.79 620.391 24.95C621.851 24.11 623.021 23.42 623.811 22.95C624.207 22.6538 624.629 22.3929 625.071 22.17Z" fill="white"/>
<path d="M570.4 142.11C570.042 141.847 569.707 141.552 569.4 141.23L566.66 138.78C563.624 136.114 560.446 133.613 557.14 131.29C555.341 129.997 553.406 128.904 551.37 128.03C549.711 127.333 547.946 126.924 546.15 126.82C544.488 126.751 542.826 126.974 541.24 127.48C541.24 127.48 541.34 127.4 541.55 127.3C541.854 127.156 542.168 127.035 542.49 126.94C543.681 126.572 544.925 126.407 546.17 126.45C548.017 126.508 549.839 126.894 551.55 127.59C553.63 128.449 555.603 129.546 557.43 130.86C560.763 133.188 563.931 135.744 566.91 138.51C568.05 139.57 568.91 140.51 569.54 141.09C569.865 141.396 570.153 141.738 570.4 142.11Z" fill="white"/>
<path d="M653.62 160.81C653.62 160.81 653.52 160.94 653.28 161.16C653.04 161.38 652.7 161.71 652.21 162.08C650.858 163.168 649.409 164.129 647.88 164.95C642.814 167.718 637.069 168.998 631.307 168.645C625.545 168.291 620 166.317 615.31 162.95C613.896 161.951 612.577 160.823 611.37 159.58C610.93 159.15 610.63 158.78 610.37 158.58C610.251 158.462 610.15 158.327 610.07 158.18C610.07 158.18 610.57 158.64 611.46 159.48C612.709 160.652 614.046 161.725 615.46 162.69C620.131 165.929 625.598 167.828 631.271 168.181C636.944 168.533 642.605 167.326 647.64 164.69C649.168 163.904 650.632 163.002 652.02 161.99C652.531 161.567 653.065 161.173 653.62 160.81Z" fill="white"/>
<path d="M691.38 219.39C691.246 219.268 691.119 219.138 691 219C690.76 218.71 690.44 218.29 690 217.75C688.754 216.132 687.383 214.614 685.9 213.21L684.32 211.81L683.48 211.06L682.48 210.35L680.48 208.85L678.15 207.42C674.465 205.254 670.502 203.599 666.37 202.5C661.364 201.163 656.165 200.696 651 201.12C645.072 201.644 639.324 203.427 634.14 206.35C628.67 209.45 623.57 213.68 618.14 217.85C615.385 220.003 612.499 221.983 609.5 223.78C606.382 225.643 603.015 227.054 599.5 227.97C595.979 228.829 592.344 229.123 588.73 228.84C585.231 228.552 581.774 227.881 578.42 226.84C572.121 224.833 566.029 222.224 560.23 219.05C554.63 216.15 549.34 213.35 544.16 211.24C539.38 209.189 534.327 207.842 529.16 207.24C524.901 206.826 520.602 207.165 516.46 208.24C513.329 209.021 510.362 210.355 507.7 212.18C506.032 213.358 504.52 214.742 503.2 216.3L502.25 217.58C502.03 217.87 501.91 218.01 501.91 218.01C501.91 218.01 502 217.85 502.2 217.55L503.12 216.24C504.408 214.637 505.909 213.217 507.58 212.02C510.244 210.14 513.23 208.764 516.39 207.96C520.564 206.855 524.902 206.5 529.2 206.91C534.391 207.507 539.467 208.855 544.27 210.91C549.49 213.01 554.8 215.81 560.4 218.69C566.178 221.837 572.242 224.429 578.51 226.43C581.83 227.44 585.25 228.087 588.71 228.36C592.27 228.642 595.852 228.352 599.32 227.5C602.775 226.593 606.084 225.203 609.15 223.37C612.134 221.589 615.003 219.621 617.74 217.48C623.18 213.33 628.31 209.09 633.83 205.97C635.193 205.201 636.603 204.516 638.05 203.92C638.76 203.62 639.45 203.3 640.17 203.04L642.33 202.36C645.121 201.53 647.989 200.984 650.89 200.73C656.107 200.31 661.356 200.79 666.41 202.15C670.566 203.269 674.55 204.951 678.25 207.15L680.58 208.6L682.58 210.14L683.58 210.85L684.42 211.62L685.99 213.04C687.446 214.469 688.784 216.014 689.99 217.66C690.39 218.22 690.71 218.66 690.93 218.95L691.38 219.39Z" fill="white"/>
<path d="M667.32 265C667.167 265.082 667.006 265.149 666.84 265.2L665.42 265.69C664.672 265.951 663.911 266.175 663.14 266.36C662.23 266.58 661.22 266.88 660.06 267.07L658.26 267.41C657.63 267.52 656.97 267.58 656.26 267.67C654.9 267.87 653.43 267.94 651.88 268.04C648.539 268.141 645.194 267.971 641.88 267.53C638.56 267.027 635.289 266.244 632.1 265.19C630.64 264.67 629.25 264.19 628 263.61C627.37 263.33 626.75 263.09 626.18 262.81L624.55 261.98C623.49 261.47 622.6 260.9 621.8 260.43C621.111 260.039 620.444 259.612 619.8 259.15L618.57 258.28C618.42 258.188 618.282 258.077 618.16 257.95C618.327 258.008 618.485 258.088 618.63 258.19L619.91 258.98C620.45 259.33 621.13 259.75 621.91 260.18C622.69 260.61 623.61 261.18 624.67 261.65L626.31 262.44C626.88 262.72 627.5 262.95 628.13 263.22C629.38 263.77 630.76 264.22 632.21 264.74C635.407 265.756 638.681 266.512 642 267C645.297 267.446 648.624 267.63 651.95 267.55C653.48 267.46 654.95 267.42 656.29 267.23C656.96 267.15 657.62 267.1 658.29 267L660.09 266.7C661.24 266.54 662.25 266.26 663.16 266.07C664.07 265.88 664.83 265.67 665.45 265.48L666.9 265.09C667.037 265.045 667.177 265.015 667.32 265Z" fill="white"/>
<path d="M545.82 119.7C545.72 119.7 545.62 118.64 545.1 117.01C544.789 116.06 544.394 115.14 543.92 114.26C542.74 112.113 541.101 110.252 539.12 108.81C538.312 108.222 537.452 107.71 536.55 107.28C535.01 106.55 533.96 106.28 533.98 106.22C534.234 106.21 534.487 106.244 534.73 106.32C535.414 106.466 536.083 106.673 536.73 106.94C537.679 107.338 538.584 107.834 539.43 108.42C541.513 109.859 543.21 111.789 544.37 114.04C544.842 114.954 545.214 115.916 545.48 116.91C545.663 117.564 545.787 118.234 545.85 118.91C545.882 119.173 545.872 119.44 545.82 119.7Z" fill="#EB996E"/>
<path d="M422.311 217.69C422.561 217.515 422.848 217.402 423.151 217.36C423.961 217.183 424.803 217.21 425.601 217.44C426.775 217.774 427.872 218.334 428.831 219.09C429.408 219.519 429.946 219.998 430.441 220.52C430.939 221.134 431.362 221.806 431.701 222.52C432.885 224.905 433.872 227.383 434.651 229.93C434.951 230.93 435.151 231.7 435.281 232.26C435.374 232.544 435.418 232.841 435.411 233.14C435.341 233.14 434.981 231.95 434.301 230.04C433.419 227.553 432.394 225.119 431.231 222.75C430.915 222.087 430.519 221.465 430.051 220.9C429.584 220.398 429.079 219.933 428.541 219.51C427.646 218.779 426.631 218.211 425.541 217.83C424.492 217.52 423.382 217.472 422.311 217.69Z" fill="#EB996E"/>
<path d="M430.08 244.81C429.85 244.462 429.658 244.09 429.51 243.7L428.1 240.64C426.91 238.05 425.17 234.51 423.51 230.48C422.842 228.564 421.959 226.729 420.88 225.01C419.948 223.661 418.665 222.593 417.17 221.92C416.176 221.439 415.069 221.242 413.97 221.35C413.19 221.45 412.79 221.66 412.77 221.61C412.75 221.56 412.86 221.54 413.05 221.44C413.328 221.301 413.624 221.203 413.93 221.15C415.078 220.954 416.258 221.104 417.32 221.58C418.907 222.242 420.276 223.337 421.27 224.74C422.393 226.472 423.306 228.332 423.99 230.28C425.64 234.28 427.33 237.86 428.44 240.49C428.99 241.8 429.44 242.88 429.7 243.62C429.87 244.002 429.997 244.401 430.08 244.81Z" fill="#EB996E"/>
<path d="M400.46 229.38C400.773 229.157 401.108 228.966 401.46 228.81L404.34 227.42C404.96 227.13 405.61 226.81 406.34 226.49C407.162 226.163 408.049 226.032 408.93 226.11C409.911 226.189 410.852 226.535 411.65 227.11C412.455 227.768 413.133 228.568 413.65 229.47C414.2 230.37 414.65 231.3 415.05 232.16C415.45 233.02 415.92 233.85 416.36 234.63C417.23 236.18 418.05 237.57 418.65 238.79C419.144 239.743 419.571 240.728 419.93 241.74C420.09 242.099 420.198 242.48 420.25 242.87C420.17 242.87 419.63 241.32 418.33 238.96C417.68 237.78 416.84 236.42 415.94 234.87C415.49 234.09 415.04 233.26 414.6 232.39C414.16 231.52 413.74 230.61 413.21 229.74C412.725 228.896 412.1 228.142 411.36 227.51C410.647 226.965 409.801 226.62 408.91 226.51C408.101 226.423 407.282 226.525 406.52 226.81C405.8 227.1 405.11 227.42 404.52 227.67L401.57 229C401.217 229.171 400.844 229.299 400.46 229.38Z" fill="#EB996E"/>
<path d="M401.86 224.07C401.593 224.292 401.297 224.477 400.98 224.62C400.4 224.95 399.55 225.41 398.49 225.97C396.38 227.09 393.44 228.61 390.18 230.25C386.92 231.89 383.96 233.35 381.8 234.39L379.24 235.59C378.925 235.757 378.589 235.882 378.24 235.96C378.513 235.738 378.812 235.55 379.13 235.4C379.71 235.08 380.56 234.62 381.62 234.06C383.73 232.94 386.67 231.43 389.93 229.78C393.19 228.13 396.15 226.68 398.3 225.65C399.38 225.13 400.3 224.72 400.87 224.44C401.181 224.269 401.514 224.145 401.86 224.07Z" fill="#EB996E"/>
<path d="M326.11 181.93C323.588 181.549 321.031 181.465 318.49 181.68C315.967 182.06 313.498 182.731 311.13 183.68C311.731 183.201 312.407 182.823 313.13 182.56C314.819 181.834 316.604 181.356 318.43 181.14C320.261 180.924 322.113 180.971 323.93 181.28C324.687 181.377 325.423 181.597 326.11 181.93Z" fill="#EB996E"/>
<path d="M644.29 156.91C642.111 155.8 640.237 154.175 638.83 152.175C637.424 150.176 636.527 147.863 636.219 145.438C635.91 143.013 636.199 140.549 637.06 138.261C637.921 135.973 639.329 133.93 641.16 132.31C645.16 134.81 647.72 139.08 649.05 143.6C650.63 148.94 648.25 154.6 644.29 156.91Z" fill="#018294"/>
<path d="M193.43 142.51C196.176 141.229 199.197 140.651 202.222 140.828C205.247 141.004 208.181 141.93 210.759 143.521C213.338 145.113 215.48 147.321 216.993 149.946C218.507 152.571 219.344 155.531 219.43 158.56C208.38 157.74 197.69 154.35 193.43 142.51Z" fill="#018294"/>
<path d="M630.45 208.61C629.624 206.028 629.453 203.281 629.953 200.617C630.452 197.953 631.606 195.454 633.311 193.347C635.016 191.239 637.218 189.589 639.719 188.544C642.221 187.499 644.942 187.092 647.64 187.36C645.64 197.08 641.44 206.18 630.45 208.61Z" fill="#018294"/>
</g>
<defs>
<clipPath id="clip0_16189_31">
<rect width="750" height="334" fill="white"/>
</clipPath>
</defs>
</svg>
