<svg width="137" height="39" viewBox="0 0 137 39" fill="none" xmlns="http://www.w3.org/2000/svg">
<g clip-path="url(#clip0_57_224)">
<path fill-rule="evenodd" clip-rule="evenodd" d="M33.6033 35.5219L23.4429 38.0415L0 33.9882C0 33.9882 2.79342 12.3803 2.8482 11.6135C2.98513 10.6002 3.01252 10.5728 4.08059 10.2441C4.1251 10.2441 5.11018 9.93664 6.60952 9.46866L6.61258 9.46771C6.9573 9.36011 7.32916 9.24405 7.723 9.12129C7.96948 7.50549 8.76369 5.42411 9.80437 3.75353C11.3106 1.39829 13.1455 0.0563546 14.9804 0.00158156C15.939 -0.025805 16.7332 0.302833 17.3631 0.96011C17.3984 0.977781 17.4223 1.00685 17.4496 1.03997C17.4646 1.05817 17.4806 1.07762 17.5 1.09704C17.6095 1.06966 17.6917 1.06966 17.8012 1.06966C19.2253 1.06966 20.4303 1.89125 21.2246 3.4249C21.471 3.91785 21.6627 4.38342 21.7723 4.76684C22.4843 4.54774 22.9225 4.41081 22.9225 4.41081C23.0349 4.37335 23.2754 4.33588 23.4863 4.38605C23.5811 4.39809 23.6732 4.44881 23.7447 4.52023C23.9638 4.76671 26.2369 6.95763 26.2369 6.95763C26.2369 6.95763 28.9481 7.01241 29.085 7.01241C29.222 7.01241 29.3863 7.12195 29.4411 7.31366C29.4685 7.50536 33.6033 35.5219 33.6033 35.5219ZM20.5947 5.15025C20.0469 5.31457 19.4444 5.50627 18.7872 5.72536C18.7872 4.79422 18.6502 3.47967 18.2394 2.38421C19.6361 2.6033 20.3208 4.19172 20.5947 5.15025ZM17.5548 6.08139C16.3284 6.46292 14.9936 6.87157 13.6582 7.28036L13.6385 7.2864C14.0219 5.83491 14.7339 4.41081 15.6103 3.45228C15.939 3.09626 16.4045 2.71285 16.9249 2.49375C17.4726 3.56183 17.5821 5.06809 17.5548 6.08139ZM15.0352 1.23397C15.4734 1.23397 15.8294 1.31613 16.1307 1.53523C15.6377 1.78171 15.1447 2.16512 14.7066 2.65807C13.5289 3.91785 12.6252 5.8623 12.2692 7.75197C11.412 8.02375 10.5708 8.27957 9.78213 8.51943L9.77986 8.52012C9.53618 8.59423 9.29752 8.66682 9.06494 8.73788C9.72221 5.75275 12.2144 1.31613 15.0352 1.23397ZM16.6236 16.6525L17.8012 12.2433C17.8012 12.2433 16.7879 11.7229 14.7887 11.8599C9.64007 12.1885 7.31221 15.7761 7.5313 19.3364C7.68525 21.7226 9.08537 22.7155 10.3112 23.5848C11.266 24.2619 12.1151 24.8641 12.187 25.9913C12.2417 26.5938 11.8309 27.4976 10.7629 27.5523C9.11972 27.6619 7.03835 26.1009 7.03835 26.1009L6.24414 29.4694C6.24414 29.4694 8.29813 31.6603 12.0227 31.4686C15.1447 31.2769 17.2809 28.7847 17.0618 25.1423C16.8794 22.3402 14.9103 21.074 13.3543 20.0734C12.3402 19.4213 11.5016 18.882 11.4475 18.104C11.4475 17.748 11.4475 16.2965 13.748 16.1596C15.309 16.05 16.6236 16.6525 16.6236 16.6525Z" fill="#2D2D2D"/>
<path d="M47.3511 21.6367C46.1735 21.0068 45.571 20.4591 45.571 19.7197C45.571 18.7885 46.4199 18.186 47.7345 18.186C49.2681 18.186 50.6375 18.8159 50.6375 18.8159L51.7055 15.5295C51.7055 15.5295 50.7196 14.7627 47.8167 14.7627C43.7635 14.7627 40.9426 17.0905 40.9426 20.3495C40.9426 22.2118 42.2572 23.6085 44.0099 24.6218C45.434 25.4161 45.927 25.9912 45.927 26.8402C45.927 27.7165 45.2149 28.4286 43.9004 28.4286C41.9559 28.4286 40.0937 27.4153 40.0937 27.4153L38.9434 30.7016C38.9434 30.7016 40.6414 31.8519 43.517 31.8519C47.6797 31.8519 50.6922 29.7979 50.6922 26.1007C50.6649 24.1015 49.1586 22.6774 47.3511 21.6367Z" fill="#2D2D2D"/>
<path d="M63.9479 14.708C61.8939 14.708 60.2781 15.6939 59.0457 17.1728L58.9909 17.1454L60.7711 7.83398H56.1427L51.624 31.5507H56.2523L57.7859 23.4443C58.3884 20.377 59.9768 18.4873 61.4557 18.4873C62.4964 18.4873 62.9072 19.1994 62.9072 20.2127C62.9072 20.8426 62.8524 21.6368 62.7155 22.2667L60.9628 31.5507H65.5911L67.3986 21.9654C67.5903 20.9521 67.7272 19.7471 67.7272 18.9255C67.7546 16.2964 66.3853 14.708 63.9479 14.708Z" fill="#2D2D2D"/>
<path d="M78.2431 14.708C72.6563 14.708 68.9591 19.7471 68.9591 25.3614C68.9591 28.949 71.1774 31.852 75.3402 31.852C80.8175 31.852 84.5146 26.9498 84.5146 21.1986C84.542 17.8848 82.5976 14.708 78.2431 14.708ZM75.9701 28.3191C74.3816 28.3191 73.7244 26.9772 73.7244 25.2792C73.7244 22.6227 75.0937 18.2956 77.6132 18.2956C79.2564 18.2956 79.8042 19.7197 79.8042 21.0891C79.8042 23.9373 78.4075 28.3191 75.9701 28.3191Z" fill="#2D2D2D"/>
<path d="M96.4011 14.708C93.2791 14.708 91.4989 17.474 91.4989 17.474H91.4442L91.718 14.9819H87.61C87.4183 16.6525 87.0349 19.2268 86.6789 21.1438L83.4473 38.1235H88.0756L89.3628 31.2495H89.4723C89.4723 31.2495 90.4309 31.852 92.1836 31.852C97.6335 31.852 101.193 26.2651 101.193 20.6235C101.193 17.5014 99.797 14.708 96.4011 14.708ZM91.9645 28.3739C90.7595 28.3739 90.0474 27.6892 90.0474 27.6892L90.8143 23.3621C91.362 20.4592 92.8683 18.5421 94.4841 18.5421C95.9082 18.5421 96.3463 19.8567 96.3463 21.0891C96.3463 24.1016 94.5662 28.3739 91.9645 28.3739Z" fill="#2D2D2D"/>
<path d="M107.82 8.05322C106.342 8.05322 105.164 9.23084 105.164 10.7371C105.164 12.1064 106.04 13.065 107.355 13.065H107.41C108.861 13.065 110.094 12.079 110.121 10.3811C110.121 9.03914 109.217 8.05322 107.82 8.05322Z" fill="#2D2D2D"/>
<path d="M101.33 31.5232H105.958L109.108 15.0913H104.452L101.33 31.5232Z" fill="#2D2D2D"/>
<path d="M120.911 15.064H117.68L117.844 14.2972C118.118 12.7088 119.049 11.3121 120.61 11.3121C121.432 11.3121 122.089 11.5586 122.089 11.5586L122.993 7.91617C122.993 7.91617 122.198 7.50537 120.473 7.50537C118.83 7.50537 117.187 7.97094 115.927 9.03902C114.339 10.381 113.599 12.3254 113.243 14.2972L113.106 15.064H110.943L110.258 18.5695H112.421L109.957 31.5507H114.585L117.05 18.5695H120.254L120.911 15.064Z" fill="#2D2D2D"/>
<path d="M132.085 15.0913C132.085 15.0913 129.182 22.4035 127.895 26.4019H127.841C127.758 25.1148 126.69 15.0913 126.69 15.0913H121.815L124.609 30.1813C124.664 30.5099 124.636 30.729 124.499 30.9481C123.952 31.9888 123.048 33.0021 121.98 33.7415C121.103 34.3714 120.118 34.7822 119.351 35.0561L120.638 38.9997C121.569 38.808 123.541 38.0138 125.184 36.4802C127.293 34.5083 129.265 31.4411 131.264 27.2783L136.933 15.0913H132.085Z" fill="#2D2D2D"/>
</g>
<defs>
<clipPath id="clip0_57_224">
<rect width="137" height="39" fill="white"/>
</clipPath>
</defs>
</svg>
