<svg width="165" height="34" viewBox="0 0 165 34" fill="none" xmlns="http://www.w3.org/2000/svg">
<g clip-path="url(#clip0_57_236)">
<path d="M30.4639 11.2411C30.9241 10.5114 31.4649 9.72665 32.3212 9.44246V9.4498C32.6209 9.34997 32.9448 9.34959 33.2448 9.44869C33.5448 9.5478 33.8047 9.7411 33.986 9.99984C34.877 11.2998 35.0237 12.9811 34.7377 14.4992C34.4828 15.8321 33.9585 17.1907 32.9042 18.0946C32.4257 18.5035 31.8151 18.8794 31.1588 18.7712C30.5409 18.6593 30.1485 18.1001 29.9047 17.5684C28.9769 15.5479 29.3106 13.0984 30.4639 11.2411Z" fill="#2D2D2D"/>
<path d="M44.6513 11.485C45.1372 10.6746 45.6982 9.78165 46.6333 9.44796H46.626C46.9256 9.34464 47.2506 9.34114 47.5523 9.43798C47.8541 9.53483 48.1164 9.7268 48.2999 9.98517C49.0883 11.1219 49.3138 12.5777 49.1396 13.9326C48.971 15.3793 48.4869 16.8699 47.429 17.9131C46.9431 18.3715 46.3399 18.8152 45.6395 18.7895C44.996 18.7602 44.5413 18.2175 44.2846 17.6784C43.3404 15.7294 43.5989 13.3404 44.6513 11.485Z" fill="#2D2D2D"/>
<path fill-rule="evenodd" clip-rule="evenodd" d="M2.29445 0.887268C1.45937 1.44962 0.805377 2.24216 0.411741 3.16879L0.424577 3.16695C0.103854 3.96556 -0.0363912 4.82518 0.0138772 5.68432C0.0185925 8.12688 0.0172443 10.5667 0.015897 13.005C0.014101 16.2553 0.0123065 19.5028 0.0248776 22.7503C0.0395454 25.3703 2.32405 27.7117 4.94409 27.785C8.14297 27.8011 11.3433 27.7978 14.5439 27.7944C18.6169 27.7901 22.6905 27.7857 26.7624 27.8217C28.7444 28.884 30.7052 29.983 32.6679 31.0831C33.9843 31.821 35.3016 32.5593 36.6265 33.2873C36.3254 32.5445 36.0213 31.803 35.7172 31.0616C35.2714 29.9746 34.8257 28.8879 34.3897 27.7979C36.7244 27.7933 39.0593 27.7948 41.3942 27.7964C44.5878 27.7985 47.7813 27.8006 50.9735 27.7869C53.599 27.7154 55.8927 25.3722 55.9037 22.7466C55.9111 18.8732 55.9086 15.0006 55.9062 11.1276C55.905 9.19108 55.9037 7.25445 55.9037 5.31762C55.9176 4.61554 55.7896 3.91786 55.5274 3.26645C55.2651 2.61505 54.874 2.02332 54.3774 1.52677C53.8809 1.03023 53.2892 0.639093 52.6378 0.376829C51.9863 0.114565 51.2887 -0.0134229 50.5866 0.000543168H5.11644C4.1098 0.0168908 3.12952 0.324912 2.29445 0.887268ZM25.7005 3.99887C25.0808 2.98863 23.4875 2.69894 22.6478 3.59184L22.6459 3.59734C22.2289 4.10247 21.9719 4.71172 21.7182 5.31325C21.6708 5.42568 21.6234 5.53784 21.5752 5.649C20.2202 9.15277 19.7087 12.9096 19.2907 16.6205C18.3434 14.1485 17.6301 11.593 17.1602 8.98776C17.0428 8.39921 16.9016 7.78133 16.4781 7.33763C15.9739 6.78759 15.0792 6.76742 14.476 7.15428C14.0249 7.4458 13.7316 7.90234 13.4859 8.36254C11.8419 11.5076 10.1917 14.6495 8.53552 17.7884C7.56928 13.863 6.85973 9.87332 6.26385 5.87085C6.18684 5.34281 6.07316 4.77076 5.66063 4.40407C5.06842 3.89253 4.17918 3.9292 3.4843 4.18955C2.6244 4.53425 2.2632 5.56649 2.45755 6.42823C2.49419 6.65124 2.53079 6.8743 2.56738 7.0974C3.37872 12.0431 4.19299 17.0067 5.59646 21.8294C5.67736 22.0579 5.75074 22.2942 5.82468 22.5323C6.10264 23.4275 6.38863 24.3486 7.11274 24.9757C7.71596 25.4524 8.50619 25.0325 8.97372 24.5686C10.0848 23.485 10.8182 22.0843 11.5057 20.711C12.4137 18.8513 13.351 17.0009 14.2879 15.1512C14.3726 14.9839 14.4574 14.8167 14.542 14.6495C15.5522 18.091 16.953 21.5397 19.4282 24.2019C19.9654 24.8162 20.7538 25.3662 21.6155 25.1828C22.5231 24.9848 22.9374 23.9544 22.8898 23.1055C22.7174 19.7741 23.1593 16.4537 23.691 13.1736C24.1457 10.6581 24.6279 8.09853 25.7958 5.80118C25.9302 5.5163 25.9918 5.20255 25.9751 4.88802C25.9585 4.57349 25.8641 4.26799 25.7005 3.99887ZM36.8737 7.30829C35.6599 5.94602 33.7366 5.36114 31.9545 5.57933C30.8776 5.71984 29.8665 6.17598 29.0484 6.89026C26.2047 9.51213 25.0826 13.698 25.739 17.4529C26.0654 19.1122 26.8666 20.777 28.293 21.7542C30.0788 22.9387 32.5577 23.0762 34.4058 21.9541C35.6673 21.206 36.562 19.9868 37.2459 18.7143C38.4453 16.4587 38.9204 13.8883 38.6063 11.3529C38.4193 9.87516 37.8638 8.42854 36.8737 7.30829ZM51.107 7.20379C49.8877 5.90385 47.9974 5.36665 46.2556 5.583H46.2648C45.0616 5.75127 43.9454 6.30518 43.0837 7.16162C40.2106 10.1245 39.1582 14.743 40.405 18.6685C40.8597 19.9519 41.6499 21.173 42.838 21.8881C44.5871 22.9368 46.9303 23.034 48.7051 21.9706C50.0032 21.2115 50.9181 19.9519 51.6112 18.6447C52.7544 16.4617 53.2223 13.9879 52.9551 11.5381C52.7883 9.954 52.2071 8.38088 51.107 7.20379Z" fill="#2D2D2D"/>
<path fill-rule="evenodd" clip-rule="evenodd" d="M65.32 6.09837C66.8492 5.77514 68.4313 5.79643 69.9513 6.16071C69.9513 7.3983 69.9513 8.6359 69.9513 9.87349C68.7101 9.57464 67.3221 9.29411 66.1175 9.87349C64.6782 10.5775 63.8917 12.2002 63.877 13.7586C63.7963 15.3116 64.3134 17.0405 65.6885 17.9133C66.9518 18.7493 68.5652 18.5715 69.9513 18.1736C69.9513 19.4112 69.9513 20.6488 69.9513 21.8864C68.1022 22.4202 66.131 22.3502 64.3244 21.6866C63.2522 21.2725 62.2884 20.6196 61.5062 19.7774C60.7241 18.9352 60.1441 17.9259 59.8104 16.826C59.3104 15.1448 59.2561 13.3624 59.6527 11.6538C59.998 10.2974 60.7091 9.06186 61.7085 8.0819C62.7078 7.10194 63.9571 6.41519 65.32 6.09653V6.09837ZM76.4895 5.91502C78.3596 5.706 80.393 5.99386 81.9056 7.19845C83.3632 8.32971 84.0893 10.154 84.3423 11.9362C84.599 13.887 84.5421 15.9166 83.9389 17.8033C83.4274 19.4039 82.353 20.8835 80.8055 21.6114C79.2581 22.3393 77.3989 22.4016 75.7249 22.0239C74.9507 21.8452 74.2226 21.5062 73.5875 21.0287C72.9524 20.5512 72.4245 19.9459 72.0378 19.2517C70.9726 17.3797 70.7782 15.1576 70.8607 13.0454C70.9487 11.2229 71.4108 9.32345 72.6337 7.91167C73.6173 6.78046 74.9932 6.06431 76.484 5.90768L76.4895 5.91502ZM77.0652 9.46463C76.2622 9.66814 75.8075 10.4602 75.5984 11.2064C75.2006 12.6824 75.2684 14.2353 75.3692 15.7461C75.4664 16.562 75.5526 17.4641 76.1356 18.1003C76.9075 18.9785 78.4587 18.8594 79.1682 17.9609C79.6376 17.3852 79.7586 16.6262 79.8668 15.9148C80.039 14.642 80.039 13.3519 79.8668 12.0792C79.7311 11.3183 79.5202 10.5152 78.961 9.94683C78.7136 9.70887 78.4087 9.53931 78.076 9.45477C77.7433 9.37024 77.3944 9.37363 77.0634 9.46463H77.0652ZM150.405 6.16437C151.991 5.74817 153.674 5.80868 155.271 6.1497C155.307 7.39097 155.271 8.63406 155.287 9.87532C154.072 9.5838 152.72 9.31062 151.54 9.83499C150.181 10.451 149.35 11.9178 149.246 13.3846C149.079 15.0347 149.53 16.9159 150.979 17.8766C152.247 18.7493 153.892 18.5788 155.296 18.1718C155.28 19.4186 155.333 20.6672 155.267 21.9121C153.313 22.42 151.184 22.3521 149.321 21.5454C148.302 21.0912 147.395 20.4176 146.666 19.5726C145.937 18.7277 145.404 17.7323 145.104 16.6574C144.642 14.9965 144.613 13.245 145.018 11.5695C145.364 10.2736 146.045 9.09158 146.992 8.14218C147.94 7.19278 149.121 6.50941 150.416 6.16071L150.405 6.16437ZM86.8028 6.28722C88.5703 6.28722 90.339 6.28722 92.1089 6.28722C92.7488 9.15477 93.3575 12.0315 93.8892 14.9211C94.3971 12.0187 95.0755 9.1511 95.7593 6.28722C97.5745 6.28722 99.3884 6.28722 101.202 6.28722C101.908 11.4784 102.609 16.669 103.305 21.8589H99.1421C98.7571 18.3038 98.4087 14.745 98.009 11.1918C97.1693 14.7524 96.2801 18.302 95.422 21.8589C94.4777 21.8589 93.528 21.8589 92.5819 21.8589C91.6762 18.2983 90.7833 14.7322 89.8666 11.1734C89.5084 14.7365 89.1515 18.2989 88.7958 21.8608C87.4684 21.8608 86.1409 21.8608 84.8153 21.8608C85.4754 16.6708 86.1379 11.4808 86.8028 6.29088V6.28722ZM105.837 6.28722C107.606 6.28722 109.373 6.28722 111.154 6.28722C111.793 9.1511 112.395 12.0223 112.93 14.9045C113.444 12.0077 114.117 9.14194 114.802 6.28722H120.222C120.924 11.4784 121.624 16.669 122.323 21.8589C120.937 21.8589 119.551 21.8589 118.165 21.8589C117.782 18.302 117.42 14.745 117.041 11.1881C116.177 14.7432 115.327 18.302 114.461 21.8571H111.625C110.719 18.2867 109.814 14.7212 108.909 11.1606C108.543 14.7249 108.185 18.2898 107.835 21.8553H103.855C104.518 16.6653 105.181 11.4747 105.842 6.28355L105.837 6.28722ZM123.5 6.33855C126.338 6.27438 129.184 6.32939 132.024 6.31105C132.024 7.41114 132.024 8.52039 132.024 9.62597C130.59 9.64247 129.157 9.62597 127.723 9.62597C127.723 10.5757 127.723 11.5255 127.723 12.4752C128.966 12.4752 130.205 12.4752 131.447 12.4752C131.447 13.5521 131.447 14.6271 131.447 15.7003C130.205 15.7003 128.964 15.7003 127.723 15.7003C127.723 16.65 127.723 17.6004 127.723 18.5513C129.162 18.5513 130.603 18.5513 132.042 18.5513C132.042 19.6514 132.042 20.757 132.042 21.8681H123.531C123.515 16.6867 123.563 11.5034 123.506 6.32388L123.5 6.33855ZM133.253 6.28722C135.033 6.28722 136.809 6.27255 138.588 6.29822C140.266 6.35139 142.04 6.76942 143.291 7.94834C144.42 8.99892 144.811 10.7132 144.373 12.1745C144.193 12.7609 143.892 13.3026 143.488 13.764C143.084 14.2253 142.587 14.596 142.029 14.8514C143.144 17.1897 144.261 19.5243 145.379 21.8553H140.942C139.782 19.4717 138.658 17.068 137.482 14.6919C137.453 17.0754 137.482 19.4589 137.47 21.8534H133.253C133.253 16.6635 133.253 11.4729 133.253 6.28172V6.28722ZM137.442 9.28128C137.442 10.5195 137.442 11.7583 137.442 12.9977C138.203 12.9446 139.03 12.9152 139.677 12.4477C140.421 11.9105 140.341 10.7609 139.871 10.0642C139.292 9.35279 138.28 9.33078 137.442 9.27028V9.28128ZM156.466 6.29088C159.303 6.29088 162.139 6.29088 164.975 6.29088C164.975 7.3983 164.975 8.50572 164.975 9.61314H160.665C160.665 10.5604 160.665 11.509 160.665 12.4587C161.906 12.4587 163.147 12.4587 164.389 12.4587C164.389 13.5349 164.389 14.613 164.389 15.6893H160.667C160.667 16.639 160.667 17.5888 160.667 18.5403C162.111 18.5403 163.556 18.5403 165.003 18.5403C165.003 19.6404 165.003 20.7466 165.003 21.8589H156.477C156.477 16.6702 156.477 11.4808 156.477 6.29088H156.466Z" fill="#2D2D2D"/>
</g>
<defs>
<clipPath id="clip0_57_236">
<rect width="165" height="34" fill="white"/>
</clipPath>
</defs>
</svg>
